<svg data-name="Layer 1" xmlns="http://www.w3.org/2000/svg" width="739.6" height="909.9"><path d="M598.541 633.265c-60.775-50.932-140.781-63.693-142.67-84.99a16.682 16.682 0 0 0-.2-1.433l.681-.725-1.344-91.707c9.542-10.883 16.967-19.751 18.124-21.5 3.5-5.274 13.263-63.028 14.666-80.241 2.568-31.513 5.654-115.652 1.892-126.755-3.84-11.331-69.581-62.988-114.752-61.709-45.373 1.285-107.051 41.43-114.968 68.355-2.431 8.266-7.381 79.786-5.327 112.585 1.081 17.256 10.677 89.839 16.443 97.391.994 1.3 9.115 9.277 19.55 19.056l-.438.013-.2 85.71c-6.461 24.043-73.326 35.173-135.639 80.749-24.783 18.126 73.127 101.183 215.606 96.467 155.416-5.139 243.36-78.878 228.576-91.266z" fill="#fdddc6" fill-rule="evenodd"/><path d="M409.767 502.814c1.538-2.992 1.185-8-1.253-10.012-5.794-4.786-60.6-2.357-68.808 0-2.986.857-6.926-4.328-7.7-5.626-11.355-19-23.088-48.956-25.049-54.865-5.7-17.189-13.277-44.583-28.994-65.316-4.853-6.4-4.908-55.584 8.017-78.681 5.5-9.829-16.955-70.953-26.012-54.09-7.354 13.692-3.227 85.736-5.585 99.759-.219 1.3 2.652 30.948 3.537 33.012s4.685 40.086 4.685 40.086 7.89 35.35 8.479 37.119 15.611 15.347 15.611 15.347l8.793 7.593-3.064-2.5-2.445 65.783a215 215 0 0 0 38.43 31.675c3.4 10.021 8.977 22.64 9.925 23.876 2.515 3.277 5.937 1.7 7.959.624 2.074-1.107-.972-9.367-4.345-16.99 10.163 4.841 20.879 8.058 31.218 7.842 11.357-.237 25.655-7.065 39.232-15.636-3.769 7.974-10.746 23.595-8.512 25.5 3.016 2.573 5.521 2.438 6.3.845.608-1.244 8.951-23.582 12.567-33.282a359.177 359.177 0 0 0 34.654-28.12l-1.574-68.364zM391 615.047c-2.166 2.667-6.833 19.5-18.615 19.619-9.021.092-11.767-8.278-17.218-10.619a3.459 3.459 0 0 0-4.333 1.667c-.834 1.5-1.666 8.926 2 10.547s6.657 2.971 8.245 3.545 5.335 3.224 8.879 4.262 4.418 1.671 7.551 0 7.031-3.048 9.825-4.618c4.062-2.282 10.833-21.9 9.166-24.07a3.785 3.785 0 0 0-5.5-.333zm119.171 30.333c-13.5 3.167-29-.169-42.667 1.729-4.055.564-3.391 5.789-.5 6.605 13 3.666 34.5 4.5 42.834-1 3.297-2.177 4.069-8.214.333-7.334zM279 652.547a140.287 140.287 0 0 1-35.477 0c-7.27-.894-7.271 6.333-2.063 8.667s26.54 4 32.874 0 8.966-9.252 4.666-8.667zm86.6 15c0 7.667 4.378 32 4.378 49 0 3.8 6.024 5.333 10.092 1.667s-2.4-51.667-4.371-54.164-10.099-4.367-10.099 3.497z" fill="#d6aa89" fill-rule="evenodd"/><path d="M257.467 408.217c2 0 4.334-1.24 4.79-3.315l.046-.209-.037-.211c-1.32-7.479-2.45-15.108-3.542-22.486q-.432-2.919-.866-5.823c-1.565-10.438-2.808-21.253-3.8-33.065l-.046-.546-.459-.27a.85.85 0 0 1-.329-.393c-1.442-3.112-5.316-10.349-10.148-10.349a5.646 5.646 0 0 0-3.946 1.783c-1.952 1.885-2.6 5.091-2.986 7.978-1.028 7.759.392 16.015 1.917 23.068a150.091 150.091 0 0 0 8.108 25.856 127.626 127.626 0 0 0 5.782 12.146c.176.322.363.716.565 1.139.733 1.539 1.645 3.455 2.982 4.216a3.986 3.986 0 0 0 1.969.481z" fill="#d6aa89"/><path d="M257.46 372.85l-8.162-17.4-7.356-10.85s-3.167-3.629-5.059-2-2.13 15.672 0 20.6 16.46 23.966 16.46 23.966l-4.207-10.983-4.349-13.937s1.652-8.111 1.076-8.681 2.028 1.886 2.028 1.886z" fill="#aa7c5b" fill-rule="evenodd"/><path d="M255.776 340.29c-2.26-4.878-6.263-11.453-12.327-11.854-4.109-.271-7.189 2.866-8.709 6.353-3.907 8.963-1.626 20.639.3 29.8a146.451 146.451 0 0 0 13.531 37.858c1.954 3.715 3.555 8.506 8.383 8.652 4.241.129 6.993-2.607 7.377-6.689.241-2.562-3.76-2.545-4 0-.3 3.13-3.554 3.213-5.184 1.542-1.221-1.253-2-3.416-2.817-4.951a127.1 127.1 0 0 1-5.761-12.416 149.942 149.942 0 0 1-7.672-25.059c-1.468-6.979-2.634-14.4-1.833-21.543.276-2.459.759-5.373 2.3-7.4 4.973-6.538 11.088 3.7 12.955 7.727 1.08 2.334 4.529.3 3.453-2.019z" fill="#3a291d"/><path d="M260.347 376.231c-1.957-5.559-15.673-41.754-24.525-33.98-1.453 1.276.675 3.391 2.121 2.121 3.919-3.441 18.271 29.135 19.511 32.657.637 1.809 3.536 1.03 2.893-.8z" fill="#3a291d"/><path d="M244.562 349.96a75.207 75.207 0 0 0 7.486 37.967c.846 1.735 3.434.216 2.59-1.514a72.208 72.208 0 0 1-7.076-36.453c.152-1.924-2.849-1.914-3 0z" fill="#3a291d"/><path d="M485.719 408.217c-2 0-4.334-1.24-4.79-3.315l-.046-.209.037-.211c1.319-7.479 2.449-15.108 3.542-22.486q.432-2.919.866-5.823c1.565-10.438 2.808-21.253 3.8-33.065l.046-.546.459-.27a.85.85 0 0 0 .329-.393c1.441-3.112 5.315-10.349 10.148-10.349a5.646 5.646 0 0 1 3.946 1.783c1.952 1.885 2.6 5.091 2.986 7.978 1.027 7.759-.392 16.015-1.917 23.068a150.091 150.091 0 0 1-8.108 25.856 127.626 127.626 0 0 1-5.782 12.146c-.176.322-.363.716-.565 1.139-.733 1.539-1.645 3.455-2.982 4.216a3.986 3.986 0 0 1-1.969.481z" fill="#fdddc6"/><path d="M485.813 372.85l8.163-17.4 7.355-10.856s3.167-3.629 5.06-2 2.129 15.672 0 20.6-16.461 23.976-16.461 23.976l4.208-10.983 4.348-13.937s-1.652-8.111-1.076-8.681-2.028 1.886-2.028 1.886z" fill="#d6aa89" fill-rule="evenodd"/><path d="M490.863 342.309c1.868-4.032 7.535-13.9 12.725-8.009 1.654 1.876 2.182 4.834 2.486 7.227.95 7.489-.35 15.34-1.925 22.647a150.353 150.353 0 0 1-7.8 25.057 125.459 125.459 0 0 1-5.8 12.345c-.739 1.365-1.9 4.51-3.34 5.325-1.863 1.054-5.139-.327-5.355-2.489-.254-2.537-4.256-2.564-4 0 .415 4.155 3.348 6.6 7.536 6.69 5.035.114 6.46-3.531 8.613-7.507a145.391 145.391 0 0 0 14-38.358c1.992-9.242 4.306-20.99.578-30.119-1.419-3.474-4.246-6.605-8.267-6.672-6.336-.1-10.6 6.863-12.908 11.844-1.075 2.321 2.372 4.355 3.454 2.019z" fill="#3a291d"/><path d="M485.819 377.029c1.242-3.529 15.59-36.1 19.511-32.657 1.445 1.27 3.575-.844 2.121-2.121-8.853-7.776-22.569 28.425-24.524 33.98-.643 1.825 2.255 2.61 2.892.8z" fill="#3a291d"/><path d="M495.712 349.96a72.22 72.22 0 0 1-7.077 36.453c-.843 1.728 1.743 3.251 2.591 1.514a75.227 75.227 0 0 0 7.486-37.967c-.152-1.911-3.153-1.928-3 0z" fill="#3a291d"/><path d="M361.671 329.267s-14.77 1.37-15.327 20.043c-.125 4.2-1.543 27.822-2.117 37.309-5.232 3.517-10.6 8.062-12.031 9.851-11.708 14.66 19.417.295 19.417.295l6.521-2.653-.6-1.194c.209.009.411.015.6.015 4.127 0 3.537-63.666 3.537-63.666z" fill="#d6aa89" fill-rule="evenodd"/><path d="M386.43 397.649l-10.611 3.537-5.9-1.179s-19.107-8.264-18.864-7.074c2.653 12.969 23.875 45.392 44.8-1.179.611-1.344-9.425 5.895-9.425 5.895z" fill="#aa7c5b" fill-rule="evenodd"/><path d="M351.327 384.137c-.98 2.375-2.761 6.079-.887 8.4 1.416 1.752 4.654 2.7 6.625 3.548 4.725 2.037 11.069 5.465 16.362 5.257 5.625-.222 12.184-3.566 17.25-5.775 1.84-.8 4.755-1.722 5.868-3.567 1.687-2.794-.572-6.316-2.314-8.437-1.636-1.991-4.451.854-2.829 2.828 2.67 3.249 1.739 3.636-1.1 4.986-2.248 1.071-4.593 1.951-6.929 2.807-3.042 1.116-7.308 3.29-10.633 3.14-3.791-.17-8.348-2.536-11.791-3.924-1.865-.752-4.531-1.482-6.13-2.761-.322-.258-1.422-.517-1.551-.93-.073-.233 1.675-3.925 1.915-4.507.981-2.377-2.887-3.413-3.857-1.063z" fill="#3a291d"/><path d="M252.64 346.809c.976 14.959 3.181 29.9 5.325 44.726 2.305 15.943 4.217 32.554 9.005 47.993 2.572 8.292 10.136 13.661 16.234 19.464 12.305 11.708 24.807 23.261 37.816 34.187a141.418 141.418 0 0 0 15.18 11.705c4.7 2.959 10.1 3.788 15.554 4.361a200.064 200.064 0 0 0 51.84-1.706c9.677-1.569 17.176-11.5 23.609-18.121 11.758-12.107 23.006-24.726 34.048-37.485 5.446-6.293 13-12.864 15.379-21.083 4.726-16.29 7.073-33.517 9.682-50.238 5.366-34.388 6.3-69.34 6.942-104.092.278-15.017 1.137-30.589-.872-45.526-1.3-9.651-10.786-16.452-17.812-22.243a241.692 241.692 0 0 0-49.656-31.7c-17.487-8.315-36.614-14.738-56.207-12.779-21.91 2.189-43.169 10.93-62.084 21.9-16.384 9.5-33.643 21.676-44.023 37.906-6.6 10.316-6.528 22.782-7.47 34.634-1.629 20.488-2.662 41.055-2.93 61.607-.115 8.827-.093 17.668.436 26.483.154 2.558 4.155 2.575 4 0-1.125-18.757-.376-37.665.513-56.416.79-16.654 1.61-33.442 3.762-49.988 1.773-13.624 11.766-23.888 21.794-32.547a179.358 179.358 0 0 1 57.762-32.974c19.051-6.628 38.212-9.181 57.85-3.746 19.6 5.423 37.948 15.413 54.777 26.665A225.065 225.065 0 0 1 474 213.466c4.332 3.69 9.04 7.629 12.361 12.3 2.1 2.959 2.226 6.349 2.487 9.89.5 6.722.559 13.48.587 20.218.077 18.984-.5 37.977-1.288 56.943-.629 15.169-1.084 30.467-2.75 45.568-1.9 17.223-4.9 34.394-8.178 51.4-1.741 9.027-2.41 19.745-8.406 27.066-8.77 10.708-17.988 21.072-27.273 31.332-9.739 10.763-19.5 21.96-30.617 31.351a15.954 15.954 0 0 1-9.024 4.239 212.3 212.3 0 0 1-23.181 1.934 180.068 180.068 0 0 1-27.47-.525c-5.684-.641-10.307-1.827-14.974-5.066-12.1-8.4-23.022-18.782-33.873-28.7-9.606-8.779-19.366-17.557-28.366-26.969-2.114-2.211-2.86-4.672-3.744-7.841-1.937-6.95-3.233-14.1-4.494-21.2-3.044-17.117-5.459-34.363-7.474-51.63-.659-5.646-1.312-11.306-1.682-16.98-.167-2.543-4.169-2.562-4.001.013zM320.927 511.38c6.183 24.247 13.469 49.13 23.925 71.933.8 1.753 3.391.23 2.591-1.514-10.343-22.557-17.507-47.232-23.623-71.217-.477-1.869-3.371-1.077-2.893.8zM324.687 553.469a265.21 265.21 0 0 0 11.892 26.318c.89 1.714 3.48.2 2.59-1.514a257.966 257.966 0 0 1-11.589-25.6c-.691-1.78-3.593-1.006-2.893.8z" fill="#3a291d"/><path d="M604.192 635.165c-33.782-28.768-75.317-46.743-115.13-65.4-6.86-3.215-13.752-6.418-20.389-10.077-2.922-1.611-8.07-3.74-9.684-6.9-1.493-2.923-.72-9.25-.836-12.68-.291-8.65-.463-17.3-.618-25.958-.34-18.866-.606-37.738-.63-56.607 0-2.574-4-2.579-4 0 .021 16.9.253 33.805.529 50.7.151 9.288.324 18.575.595 27.86.155 5.326-.131 11.03.774 16.3.576 3.358 3.2 5.3 5.893 7.149 5.229 3.587 11.078 6.34 16.766 9.1 18.439 8.959 37.21 17.206 55.521 26.436 23.986 12.091 47.852 25.415 68.38 42.9 1.95 1.66 4.792-1.156 2.829-2.828zM152.607 631.281c34.365-26.08 74.358-42.846 113-61.361a183.669 183.669 0 0 0 17.323-9.039c2.726-1.684 6.443-3.792 7.638-6.977 1.318-3.516.787-8.5.926-12.177.3-7.967.473-15.94.631-23.912.358-18.087.627-36.181.65-54.272 0-2.574-4-2.578-4 0-.019 15.293-.235 30.588-.5 45.88-.142 8.311-.306 16.623-.545 24.933-.158 5.476.117 11.3-.727 16.727-.466 3-3.033 4.411-5.556 6.009a159.777 159.777 0 0 1-16.021 8.488c-17.106 8.274-34.486 15.961-51.5 24.433-22.013 10.963-43.717 22.918-63.346 37.814-2.024 1.536-.033 5.012 2.019 3.454zM197.765 641.58a604.13 604.13 0 0 0 83.826 1.944c13.77-.718 27.509-1.966 41.2-3.556 11.941-1.386 28.756-6.252 38.746 2.879 1.423 1.3 3.55-.816 2.121-2.122-8.617-7.876-20.63-6.271-31.3-4.921-15.144 1.915-30.335 3.488-45.573 4.424-29.7 1.824-59.395.929-89.024-1.648-1.923-.167-1.912 2.834 0 3zM369.205 645.363c6.219 3.279 11.415-1.551 16.72-4.443 7.533-4.106 16.595-3.142 24.907-3.155 14.854-.025 29.756-.116 44.593.7 15.3.836 30.406 2.391 45.743 2.241 12.194-.119 24.423-.269 36.6-.981 1.919-.112 1.932-3.113 0-3-11.77.688-23.589.839-35.377.969-15.044.166-29.832-1.145-44.834-2.1-14.206-.907-28.494-.826-42.721-.827-6.779 0-13.783-.413-20.516.405a26.539 26.539 0 0 0-9.907 3.163c-3.992 2.217-8.861 6.991-13.692 4.444-1.706-.9-3.224 1.688-1.514 2.59zM423.066 517.069a471.117 471.117 0 0 1-13.6 52.859c-.591 1.843 2.305 2.632 2.893.8a471.605 471.605 0 0 0 13.6-52.859c.37-1.886-2.521-2.693-2.893-.8zM420.2 555.17a207.271 207.271 0 0 1-7.7 21.751c-.743 1.779 2.158 2.555 2.893.8a207.173 207.173 0 0 0 7.7-21.75c.543-1.857-2.351-2.65-2.893-.8zM367.617 680.6a331.6 331.6 0 0 1 3.993 34.625c.12 1.918 3.121 1.931 3 0a339.191 339.191 0 0 0-4.1-35.422c-.321-1.9-3.212-1.094-2.893.8zM373.146 671.884q2.406 18.274 3.647 36.666c.129 1.916 3.13 1.93 3 0q-1.242-18.391-3.647-36.666c-.249-1.887-3.252-1.912-3 0z" fill="#3a291d"/><g><path d="M595.128 620.607c-9.639-7.258-95.848-56.489-95.848-56.489-64.522 66.867-189.749 69.486-263.555 13.051-10.4.722-57.433 18.712-92.9 49.3-20.8 17.934-30.44 54.765-2.5 75.987 83.8 63.641 327.978 89.153 449.3 8.8 28.475-18.862 38.814-65.565 5.503-90.649z" fill="#efefef"/><path d="M245.091 565.269l-11.019 9.983 5.509 4.884 16.312 9.374 20 10.719 18.035 6.595 26.2 6.939 18.534 2.972 22.664 1.847 27.818-2.5 13.429-2.322 18.539-4.669 25.153-9.414 20.1-9.7 20.039-12.7 11.682-11.026-4.111-5.11-4.786-3.562-5.851 4.522-17.208 11.65-19.82 10.874-25.2 9.788-28.541 6.349s-25.75 1.512-26.49 1.925-19.739-.586-19.739-.586l-30.25-5-22-6.25-26-10.718-14.324-7.955zM347.5 642.863c7.758-.262 12.772 1.241 24.342-1.011 15.048-2.928 33.087-10.568 33.087-10.568a2.234 2.234 0 0 1 2.913 2.128 2.235 2.235 0 0 1-.991 1.856l-12.045 8.065s-11.74 7.021-21.585 8.538c-6.3.972-25.4 2.257-25.4 2.257a4.481 4.481 0 0 1-4.855-4.909l.232-2.323a4.478 4.478 0 0 1 4.302-4.033z" fill="#bbbbbc"/><path d="M143.247 626.879c3.513-3.324 7.882-5.872 11.945-8.446 6.461-4.094 13.059-7.971 19.7-11.754 14.512-8.259 29.3-16.3 44.622-22.963 4-1.739 9.464-4.77 13.955-4.823 3.149-.037 6.475 3.461 9.487 5.336q9.546 5.942 19.565 11.075a223.893 223.893 0 0 0 73.624 23.133c39.9 5.028 80.658-2.344 116.848-19.666a197.669 197.669 0 0 0 36.037-22.011 134.27 134.27 0 0 0 5.894-4.835c1.312-1.146 3.025-3.608 4.574-4.257-1.581.663 1.075.824 2.07 1.177a69.218 69.218 0 0 1 7.05 3.126c17.161 8.363 33.58 18.446 49.715 28.615 17.248 10.871 34.743 22.062 50.187 35.436 1.937 1.677 4.778-1.14 2.828-2.829-13.526-11.713-28.633-21.689-43.642-31.371-15.978-10.308-32.268-20.248-49.054-29.193a131.917 131.917 0 0 0-15.6-7.482c-3.365-1.258-5.106-1.482-7.761 1.037-8.838 8.387-19.1 15.312-29.619 21.39-34.293 19.8-74.082 30.073-113.7 28.228a211.615 211.615 0 0 1-77.78-19.286q-9.908-4.524-19.392-9.9-4.972-2.814-9.824-5.836c-2.749-1.711-5.819-4.611-8.883-5.626-3.275-1.085-7.444.722-10.481 1.821-16.712 6.044-32.612 14.98-48.083 23.625-7.989 4.464-15.914 9.058-23.658 13.935-4.582 2.886-9.5 5.769-13.452 9.512-1.874 1.773.958 4.6 2.828 2.829z" fill="#7a7b7b"/><path d="M143.618 625.084c26.212 26.879 41.382 65.57 43.074 102.863.087 1.922 3.088 1.933 3 0-1.728-38.087-17.178-77.529-43.953-104.984-1.35-1.385-3.47.737-2.121 2.121zM606.773 631.287c-15.5 8.938-26.423 25.678-34.819 40.981-9.9 18.034-17.526 37.942-20.035 58.444-.234 1.912 2.768 1.895 3 0 2.441-19.952 10.01-39.393 19.626-56.93 8.152-14.87 18.679-31.218 33.742-39.905a1.5 1.5 0 0 0-1.514-2.59zM356.424 644.437a1.5 1.5 0 0 0 0-3 1.5 1.5 0 0 0 0 3z" fill="#7a7b7b"/><path d="M356.434 644.252a75.6 75.6 0 0 0 27.872-4.119c1.814-.626 1.035-3.525-.8-2.893a73.311 73.311 0 0 1-27.075 4.012c-1.931-.075-1.927 2.925 0 3zM361.76 653.371a71.088 71.088 0 0 0 36.745-10.486c1.646-1 .14-3.6-1.514-2.591a67.978 67.978 0 0 1-35.231 10.077 1.5 1.5 0 0 0 0 3zM233.9 577.394c4.144-3.641 8.522-6.98 12.255-11.064l-2.356-.3c4.374 5.8 12.372 9.589 18.6 12.889a214.987 214.987 0 0 0 40.901 16.305c39.668 11.486 82.582 12.455 122.011-.572a191.13 191.13 0 0 0 37.674-17.22 203.839 203.839 0 0 0 18.542-12.469c2.691-2.03 6.219-6.357 9.593-4.432 2.557 1.458 4.756 4.262 7.209 6.018 1.572 1.126 3.072-1.475 1.514-2.59-2.7-1.934-6.706-7.454-10.305-7.823a3.7 3.7 0 0 0-2.457.673c-3.511 1.991-6.629 5.281-9.907 7.667a197.393 197.393 0 0 1-33.652 19.8 186.5 186.5 0 0 1-68.973 16.683 219.482 219.482 0 0 1-104.4-21.49 145.108 145.108 0 0 1-15.749-8.667c-2.7-1.74-6.036-3.675-8.013-6.294a1.523 1.523 0 0 0-2.356-.3c-3.733 4.084-8.11 7.424-12.254 11.065-1.453 1.277.676 3.392 2.121 2.121z" fill="#7a7b7b"/></g><g><path d="M92.5 717.247c.2-1.959 4.8-25.01 4.8-25.01s9.1-40.357 9.351-41.539 4.2-16.03 4.868-17.714 2.773-11.66 2.773-11.66l6.167-3.971 25.986-16.953 1.676-5.677 35.011-18.675 4.249-.817 41.906-21.378 18.423-28.714 25.785-38.42 16.738-16.083-1.446 22.717-1.168 21.167 1.5 56.273 2.707 18.25 16.293 45.977 15.381 28.888 24.289 34.485 26.347 29.187 25.32-49.06 19-36.167 15.5-30.667 11.144-38.919 4.36-26.85 2.265-14.148 2-14.267 1.873-18.816 1.8-31.408 12.627 11.331 19.044 31.671 13.05 22.906 9.156 18.444 5.325 5.47 18.851 7.25 7.361 2.894 9.139 6.438 14.833 4.335 36.168 20.966 2.159 7.909 25.51 16.808 5.333 6.554 5.167 18.931s2.184 9.614 2.333 10.334 5.114 17.08 5.114 17.08l7.593 39.942s-97.874 65.144-307.276 65.144C187.287 781.686 92.5 717.247 92.5 717.247z" fill="#433947"/><g opacity=".75" fill="#231e26"><path d="M347.307 782.079c-72.77-49.293-114.518-66.553-110.088-75.217 2.859-5.592 7.818-14.625 7.818-14.625s-19 18.333-22 17.033c-8.032-3.481-43.132-37.339-56.132-45.738-4.035-2.607 10.555-13.989 10.555-13.989l20.356 15.481 19.721 18.5 7.5 7.5 6.072-4.186 23.45-21.186 23.176-25.626 7.245-8.448-2.664 11.436-21.925 37.956-8.6 15.3-.5 6.25 9.1 7.284 18.338 12.52 25.308 17.7 18.881 16.125 17.284 17.38s8.559 9.535 7.105 8.55zM413.844 778.218c21.693-33.448 72.591-83.2 72.591-83.2s2.555 11.826 5.055 11.653 55.735-25.093 56.3-29.153-6.75-20.75-6.75-20.75l-20.716 11.889-27.07 14.951-6.816-13.78-5 8.217-32.246 41.265-31.427 42.746-11.454 17.33s5.963 1.252 7.533-1.168z"/><path d="M464.7 710.57l1.087 46.45 9.114 2.174 50.562 4.775-18.239 3.717s-45.667-1.119-47.45-3.717c-3.716-5.414-3.374-45.625-3.374-45.625zM321.037 763.435c-24.785-12.915-110.25-9.915-114.25-8.415s-5.129-6.444-5.129-6.444l12.629-2.306 56.968-1.25 32.282 3.556s22.59 17.512 17.5 14.859z"/><path d="M284.98 752.27c-.443.75-1.168 15.918-1.168 15.918l-7 3.677-22.524 1.66 16.968 3.055s17.443 1.56 18.613 0 .96-22.828.96-22.828zM213.34 560.873c2.447 9.216-21.035 46.781-24.419 42.214-.635-.858 1.554 2.031.574 4.089-4.57 9.594-31 21.721-36.708 16.826-1-.855-.917 1.292-1.138 2.518-1.082 6-20.226 16.573-24.112 13.5-4.528-3.58 0 7.095 0 7.095s23.03 74.4 23.03 96.9c0 4.063 9.5 5.151 9.5 5.151l-25.53-90.146-2.25-11.891L155.6 636.4l4.051 2.812L184.925 625l9.2-11.092 19.21-31.833 15.947-28.223s-17.06 2.811-15.942 7.021zM516.6 557.1c12.289 24.417 35.434 46.917 41.458 42.7 5.019-3.518 3.024 3.907 3.18 4.794 1.977 11.218 32.282 25.061 37.046 21.428s1.914 1.584 1.914 2.339c0 6.161 19.414 20.064 23.375 14.487s-4.054 21.471-7.3 35.174c-13.164 55.549-14.51 63.936-14.51 63.936l-11.134 3.973 12.2-48.659 16.743-47.727-25.009-14.355-3.421 3.392-16.574-10.223-10.334-5.4-6.5-2.255 1.172-6.93-7.869-6.28-18.681-7.471s-12.819-32.709-13.319-33.854-3.489-11.161-2.437-9.069z"/></g><path d="M455.235 467.862c-.485 43.742-7.29 87.184-18.974 129.306-1.442 5.2-2.811 10.476-4.555 15.584-1.877 5.5-5.25 10.56-8.045 15.64q-7.838 14.248-15.512 28.586c-10.362 19.4-20.437 38.95-30.021 58.743-10.451 21.584-20.287 43.461-29.31 65.681-.968 2.384 2.9 3.422 3.858 1.064 16.689-41.1 36.3-80.943 57.126-120.092q7.638-14.358 15.471-28.611 3.907-7.124 7.85-14.228c2.553-4.6 3.711-9.831 5.171-14.871a548.207 548.207 0 0 0 14.571-64.205 484 484 0 0 0 6.37-72.6c.028-2.575-3.972-2.577-4 0z" fill="#0f0814"/><path d="M408.033 780.4c20.115-27.668 39.111-56.176 60.239-83.1q7.446-9.487 15.28-18.662c2.073-2.417 4-3.9 4.508-7.023a31.3 31.3 0 0 0-.033-9.675c-2.187-14.686-12.685-28-19.568-40.787-4.605-8.558-9.105-17.173-13.742-25.714-4.307-7.932-9.2-16.233-7.651-25.707.411-2.519-3.443-3.6-3.857-1.064-2.268 13.893 6.47 25.755 12.66 37.361 4.117 7.721 8.188 15.467 12.39 23.143 3.781 6.908 8.091 13.571 11.552 20.648 3.267 6.679 7.3 17.017 2.731 23.883-4.525 6.8-10.875 12.881-15.95 19.31-9.919 12.563-19.369 25.487-28.666 38.514-11.135 15.6-22.074 31.347-33.346 46.852-1.516 2.085 1.953 4.083 3.453 2.019z" fill="#0f0814"/><path d="M484.736 665.556c1.151 6.847 4.068 12.769 6.788 19.064a2.038 2.038 0 0 0 2.737.717c9.287-4.388 18.2-9.631 27-14.908 7.708-4.622 15.718-9.2 22.788-14.787 1.689-1.334 2.755-2.18 2.9-4.364.2-3.12-.62-6.63-1.128-9.7a187.855 187.855 0 0 0-6.32-25.232c-12.719-40.658-31.6-80.492-53.81-116.8a222.1 222.1 0 0 0-15.39-22.514c-3.4-4.279-7.248-9.061-12.192-11.644-2.279-1.191-4.3 2.26-2.019 3.454 4.038 2.109 7.192 5.92 10.047 9.37a178.41 178.41 0 0 1 12.7 17.91 509.866 509.866 0 0 1 28.6 52.112 553.469 553.469 0 0 1 24.642 58.456c2.918 8.348 5.588 16.8 7.683 25.4.914 3.75 1.723 7.531 2.325 11.345.284 1.8 1.4 6.884.98 7.819-1.009 2.247-6.169 4.615-8.111 5.9-4.475 2.955-9.033 5.786-13.621 8.564a323.823 323.823 0 0 1-29.093 16.17l2.736.718c-2.58-5.97-5.3-11.627-6.385-18.109-.426-2.533-4.281-1.459-3.857 1.064zM288.805 472.4c-3.491 36.99-5.651 74.976 1.039 111.74 6.823 37.5 24.643 72.906 47.083 103.434a343.553 343.553 0 0 0 35.627 41.042c1.834 1.81 4.665-1.017 2.828-2.828-24.237-23.908-45.25-51.258-60.587-81.724a231.859 231.859 0 0 1-19.821-54.6c-4.118-18.918-5.324-38.418-5.354-57.739-.031-19.82 1.323-39.606 3.185-59.33.241-2.561-3.76-2.545-4 0z" fill="#0f0814"/><path d="M289.223 468.909c-7.978 3.894-13.949 12.145-19.166 19.02-8.758 11.54-16.491 23.858-24.069 36.191-17.67 28.759-33.993 58.351-52.266 86.74-7.38 11.465-14.965 23.411-24.767 33a2.017 2.017 0 0 0 .405 3.14c14.713 7.66 26.8 20.462 38.442 32.033 4.174 4.147 8.218 8.539 12.714 12.346 1.929 1.634 3.305 2.867 5.74 1.716 2.728-1.289 5.239-3.79 7.548-5.677 4.431-3.623 8.72-7.42 12.926-11.3a301.329 301.329 0 0 0 30.509-32.17c8.972-11.136 18.8-24.235 20.941-38.779.371-2.518-3.482-3.605-3.857-1.064-1.8 12.2-9.35 23.227-16.642 32.839a273.259 273.259 0 0 1-29.236 32.081c-7.066 6.748-14.338 13.667-22.318 19.347-.716.51-1.567.925-2.248 1.467.38-.3 1.48.668.871-.193a12.715 12.715 0 0 0-1.851-1.483c-4.312-3.725-8.23-7.945-12.268-11.959-11.87-11.8-24.244-24.844-39.252-32.657l.4 3.141c8.214-8.034 14.809-17.79 21.146-27.314 8.856-13.309 17.084-27.033 25.25-40.772 16.4-27.591 31.991-55.912 50.562-82.133 5.93-8.372 12.937-19.437 22.5-24.105 2.313-1.129.288-4.579-2.019-3.454z" fill="#0f0814"/><path d="M284.126 628.669c-5.281 17.512-14.707 33.141-23.971 48.768-2.354 3.972-4.7 7.948-6.964 11.973-1.515 2.7-3.688 5.623-4.4 8.61-1.898 7.908 6.875 10.98 12.209 14.609 15.6 10.626 30.922 21.682 45.564 33.608 3.368 2.743 6.6 6.124 10.216 8.51a55.179 55.179 0 0 1 8.728 6.742c7.041 6.882 14.094 13.748 20.074 21.6 1.54 2.021 5.015.031 3.454-2.019a175.947 175.947 0 0 0-16.887-18.684c-2.983-2.932-5.946-6.675-9.35-9.092-3.067-2.178-6.236-3.954-9.2-6.419-13.324-11.091-27.221-21.471-41.433-31.394q-5.709-3.986-11.476-7.885c-3.708-2.511-9.414-4.784-7.37-10.1 3-7.794 8.685-15.329 12.939-22.506 8.562-14.447 16.85-29.1 21.724-45.261.745-2.469-3.115-3.525-3.857-1.063zM187.014 621.344c-9.164 5.881-19.052 10.518-28.367 16.139l2.736.718a67.148 67.148 0 0 1-11.535-25.56c-.759-3.664-3.174-12.868-.715-15.852 2.1-2.552 6.65-4.315 9.453-5.908 4.269-2.427 8.6-4.738 12.969-6.989 3.507-1.81 7.025-3.644 10.629-5.257a5.74 5.74 0 0 0 1.54-.683 9.86 9.86 0 0 1 .505-.189q1.6-.422-2.124-1.661c-.447.38.191 3.9.23 4.35 1.014 11.739 3.447 24.516 10.068 34.466 1.419 2.133 4.885.133 3.454-2.019-6.288-9.449-8.647-21.691-9.556-32.855-.157-1.927.582-5.726-1.948-6.263-1.518-.322-3.7 1.17-4.984 1.771-7.473 3.486-14.8 7.365-21.981 11.411-3.641 2.051-11.62 5.126-12.9 9.624-.8 2.811.1 7.312.422 10.181a71.966 71.966 0 0 0 1.757 9.872 70.437 70.437 0 0 0 11.26 23.58 2.045 2.045 0 0 0 2.737.717c9.315-5.622 19.2-10.258 28.367-16.139 2.16-1.386.156-4.85-2.019-3.454z" fill="#0f0814"/><path d="M185.934 578.574c6.981-4.794 14.61-8.736 22.086-12.685 7.695-4.065 15.485-8.3 23.621-11.439 2.377-.916 1.344-4.785-1.064-3.857-8.066 3.108-15.789 7.226-23.431 11.239-7.863 4.129-15.9 8.253-23.231 13.288-2.109 1.448-.11 4.916 2.019 3.454zM145.436 597.126c-10.394 7.9-21.726 14.6-31.7 23.054a2.043 2.043 0 0 0 0 2.828c4.469 5.567 7.494 12.39 10.524 18.8 1.043 2.208 3.115 10.025 6.168 10.41 1.391.175 2.59-1.281 3.663-1.99 2.461-1.626 5.1-3.012 7.7-4.414 5.411-2.927 10.9-5.7 16.388-8.483 2.3-1.164.274-4.616-2.019-3.454-4.968 2.519-9.939 5.034-14.853 7.659-2.514 1.343-5.029 2.7-7.475 4.159a33.4 33.4 0 0 0-2.872 1.826c-.6.448-1.936.987-.794.8l1.946.514c-.579-.485-1.49-2.862-2-3.947-1.31-2.77-2.779-5.556-4.117-8.313a84.788 84.788 0 0 0-9.808-16.4v2.828c10-8.232 20.961-14.731 31.081-22.428 2.022-1.538.223-5.013-1.827-3.454z" fill="#0f0814"/><path d="M113.224 621.062c-10.648 31.152-16.822 63.758-22.736 96.08-.461 2.517 3.394 3.6 3.857 1.063 5.914-32.322 12.088-64.927 22.736-96.08.834-2.441-3.028-3.489-3.857-1.063zM531.825 601.947c8.728 2.683 17.9 8.207 25.226 13.55 2.082 1.519 4.08-1.95 2.019-3.454-7.61-5.551-17.109-11.164-26.182-13.953-2.466-.758-3.521 3.1-1.063 3.857zM514.555 557.806c14.245 5.42 28.75 11.888 41.457 20.374 2.147 1.433 4.152-2.03 2.019-3.454-12.993-8.677-27.844-15.234-42.413-20.777-2.408-.917-3.45 2.949-1.063 3.857z" fill="#0f0814"/><path d="M555.093 576.984a103 103 0 0 1 .712 43.184 2.038 2.038 0 0 0 1.4 2.46c11.382 2.76 21.039 10.623 30.876 16.592 3.2 1.94 4.557 1.182 7.143-1.705 3.856-4.3 6.3-9.9 8.132-15.313 2.335-6.9 6.118-19.081-.074-25.027-6.716-6.449-16.081-11.091-24.229-15.389a98.372 98.372 0 0 0-14.963-6.769c-2.5-.822-6.274-2.122-8.479.022-1.85 1.8.98 4.624 2.828 2.828.556-.54 5.175 1.194 6.395 1.654a108.578 108.578 0 0 1 12.2 5.719c7.4 3.9 14.928 8.1 21.561 13.233 2.388 1.847 3.562 3.1 3.785 6.236.351 4.909-.9 10.048-2.323 14.7a45 45 0 0 1-6.718 14.116c-.475.623-2.025 1.785-2.253 2.515-.082.261-1.519.92-.041.624.867-.174.721.174.332-.13-1.141-.891-2.55-1.582-3.769-2.37-9.079-5.87-18.68-12.811-29.341-15.4l1.4 2.46a108.008 108.008 0 0 0-.712-45.31c-.577-2.508-4.434-1.446-3.857 1.063z" fill="#0f0814"/><path d="M593.554 636.917a248.614 248.614 0 0 1 24.727 15.313c2.1 1.5 4.1-1.97 2.019-3.454a248.614 248.614 0 0 0-24.727-15.313c-2.258-1.239-4.279 2.214-2.019 3.454zM604.105 608.113c9.177 5.349 18 11.268 26.728 17.315 2.121 1.469 4.123-2 2.019-3.454-8.729-6.046-17.551-11.965-26.729-17.315-2.228-1.3-4.244 2.157-2.018 3.454z" fill="#0f0814"/><path d="M630.036 623.648a575.535 575.535 0 0 0-41.631 123.122c-.542 2.51 3.313 3.583 3.857 1.064a571.068 571.068 0 0 1 41.227-122.167c1.088-2.317-2.359-4.35-3.453-2.019z" fill="#0f0814"/><path d="M630.116 624.71c4.721 6.719 6.254 14.31 7.9 22.2 1.57 7.52 4.181 14.744 6.084 22.182 4.207 16.439 6.854 33.222 10.486 49.787.551 2.514 4.408 1.45 3.857-1.063-3.767-17.18-6.466-34.6-10.961-51.617-2.077-7.861-4.588-15.487-6.24-23.459-1.49-7.188-3.4-13.972-7.672-20.045-1.469-2.09-4.939-.094-3.454 2.019zM462.635 699.981c.1 17.043-.657 34.126.623 51.142.242 3.213-.549 6.821 2.676 8.3 2.263 1.035 5.235 1.208 7.651 1.583 19.344 3 39.466 4.894 59.05 4.376 2.569-.068 2.579-4.068 0-4-18.238.482-36.842-1.283-54.894-3.781-2.853-.395-5.744-.775-8.552-1.433-.417-.1-1.875-.226-2.192-.6.6.713.424-2.571.418-2.474a51.275 51.275 0 0 0-.416-5.9c-.906-15.72-.27-31.477-.364-47.211-.016-2.573-4.016-2.578-4 0zM319.7 751.824c-22.281-7.8-47.1-8.447-70.465-8.019-15.867.29-32.537.619-48.16 3.781l2.531 1.928c.489-9.506.282-18.984.178-28.494l-1.468 1.928c10.386-2.178 21.378-2.592 31.93-3.4 11.413-.87 23.449-2.312 34.882-1.032 2.554.286 2.534-3.717 0-4-11.821-1.323-24.284.205-36.08 1.124-10.516.82-21.444 1.276-31.795 3.447a2.019 2.019 0 0 0-1.469 1.929c.1 9.51.311 18.988-.178 28.494a2.025 2.025 0 0 0 2.532 1.929c15.264-3.089 31.6-3.355 47.1-3.638 23.05-.422 47.428.187 69.4 7.876 2.434.852 3.481-3.011 1.063-3.857zM162 748.639c-7.585-33.387-15.653-66.773-28.827-98.472-.973-2.343-4.845-1.316-3.857 1.063 13.174 31.7 21.242 65.085 28.827 98.473.57 2.509 4.427 1.447 3.857-1.064z" fill="#0f0814"/><path d="M281.1 749.107c1.442 6.946.762 13.886.687 20.913l1.469-1.929c-11.68 1.848-23.528 2.013-35.257 3.434-2.523.306-2.554 4.309 0 4 12.086-1.464 24.282-1.673 36.32-3.577a2.009 2.009 0 0 0 1.468-1.928c.079-7.408.688-14.662-.83-21.976-.523-2.519-4.38-1.453-3.857 1.063zM211.844 729.7a5.427 5.427 0 0 0 1.707 6.985 5.062 5.062 0 0 0 6.873-1.692 4.746 4.746 0 0 0-2.444-6.516c-2.5-.853-6.57.17-6.67 2.811" fill="#0f0814"/><path d="M210.117 728.69c-1.76 3.566-.716 8.231 3.042 10.04 3.543 1.7 8.426-.1 9.528-4.011a6.739 6.739 0 0 0-4.967-8.37c-3.64-.721-7.947.909-8.41 4.939-.294 2.553 3.709 2.532 4 0 .131-1.143 2.811-1.187 3.549-1.039a2.688 2.688 0 0 1 1.971 3.407 2.981 2.981 0 0 1-3.865 1.529 3.366 3.366 0 0 1-1.394-4.476c1.135-2.3-2.314-4.33-3.454-2.019zM481.2 732.562c-.908 2.819 3.695 5.846 6.62 6.3 4.992.783 9.529-4.728 8.578-9.69-.808-4.223-5.295-7.588-9.474-6.577s-6.659 5.92-5.815 10.123" fill="#0f0814"/><path d="M479.275 732.03c-.927 5.266 5.457 9.234 10.189 8.874 5.429-.412 9.525-6.067 8.993-11.312-.541-5.327-5.808-9.87-11.222-9.066-6.048.9-8.863 7.21-8.05 12.728.373 2.538 4.228 1.459 3.857-1.063-.428-2.905.938-6.42 3.868-7.463 3.253-1.157 6.808 1.521 7.478 4.714a6.648 6.648 0 0 1-3.627 7.04c-1.855.855-8.161-.366-7.628-3.389.443-2.517-3.411-3.6-3.858-1.063z" fill="#0f0814"/></g><g><path d="M455.827 327.852c-1.255-7.623-6.224-9.959-6.224-9.959l-7.469-2.49-8.714-1.245-9.959-1.245-7.469 1.245-11.2 2.49s-6.175 3.112-11.2 11.2c-4.9 7.888-7.95 9.025-5.126 12.448s6.589-.244 10.04-.867 17.571-6.6 17.571-6.6h11.295l12.55 3.735 6.275 6.224s5.311 3.871 7.531 0c4.986-8.712 2.458-12.756 2.099-14.936zM358.5 336.041c-.434-2.6-2.386-5.532-4.756-8.656-5.756-7.591-18.874-10.737-18.874-10.737l-11.2-2.49-7.469-1.245-9.959 1.245-8.714 1.245-7.469 2.49s-10.984 11.515-4.117 24.9c2.038 3.97 7.531 0 7.531 0l6.275-6.224 12.55-3.735h11.3s1.471.843 3.574 2 2.871 9.686 1.218 14.423c-4.67 13.381-21.061 16.3-17.428 17.428 13.2 4.1 28.009-11.2 31.121-9.959 3.011 1.207 18.456-15.259 16.417-20.685z" fill="#d6aa89" fill-rule="evenodd"/><path fill="#fff" fill-rule="evenodd" d="M440.889 335.321l-8.714-1.245h-18.673l-1.245 11.204 2.49 2.489 8.714 1.245 9.959-1.245 6.224-2.489 3.735-6.225-2.49-3.734z"/><path fill="#3a291d" fill-rule="evenodd" d="M433.42 332.84l-11.204 1.245h-6.224l1.245 7.469 6.224 3.735 6.224-1.245 4.98-6.225-1.245-4.979z"/><path d="M415.4 335.651c.163 5.52 3.415 9.95 9.276 9.87 4.9-.067 9.889-3.194 11.009-8.144.3-1.323-1.736-1.888-2.036-.561-.871 3.85-4.576 6.265-8.38 6.567-4.9.389-7.621-3.1-7.757-7.732-.04-1.356-2.152-1.362-2.112 0z" fill="#3a291d"/><path d="M400.633 340.068a48.4 48.4 0 0 1 23.387-4.99c5.9.187 13.327 1.191 17.554 5.794 1.843 2.006 4.823-.987 2.987-2.986-4.712-5.13-12.453-6.564-19.1-6.966a52.92 52.92 0 0 0-26.962 5.5c-2.427 1.225-.291 4.87 2.132 3.647z" fill="#3a291d"/><path d="M412.67 346.811a11.09 11.09 0 0 1 1.95-10.3c1.744-2.064-1.229-5.066-2.986-2.986a15.469 15.469 0 0 0-3.037 14.405c.718 2.618 4.794 1.506 4.073-1.123z" fill="#3a291d"/><path d="M411.022 350.169c10.441 1.139 27.965 1.043 33.869-9.724 1.307-2.385-2.338-4.518-3.647-2.132-5.044 9.2-21.428 8.592-30.222 7.632-2.7-.294-2.678 3.932 0 4.224z" fill="#3a291d"/><path d="M409.5 348.478a31.354 31.354 0 0 0 17.39 18.283c1.85.808 3.464-1.92 1.6-2.735-7.377-3.223-13.183-8.722-15.935-16.39-.684-1.9-3.745-1.083-3.054.842zM401.005 329.183c12.778-2.822 30.694-3.32 42.437 3.219 1.783.993 3.382-1.742 1.6-2.735-12.6-7.016-31.188-6.562-44.878-3.539-1.989.439-1.147 3.494.842 3.055z" fill="#3a291d"/><path fill="#fff" fill-rule="evenodd" d="M326.158 334.076h-18.673l-8.714 1.245-2.49 3.734 3.735 6.225 6.224 2.489 9.959 1.245 8.714-1.245 2.49-2.489-1.245-11.204z"/><path fill="#3a291d" fill-rule="evenodd" d="M317.444 334.085l-11.204-1.245-.189 4.979 3.924 5.169 6.224 1.245 6.224-2.679 1.245-7.469h-6.224z"/><path d="M323.241 335.37c-.991 4.341-3.785 8.286-8.7 7.919a7.891 7.891 0 0 1-7.442-7.248c-.087-1.35-2.2-1.359-2.111 0a9.992 9.992 0 0 0 8.955 9.3c6.078.718 10.074-3.907 11.33-9.411.3-1.323-1.733-1.888-2.036-.561z" fill="#3a291d"/><path d="M341.159 336.421a52.922 52.922 0 0 0-26.962-5.5c-6.644.4-14.386 1.836-19.1 6.966-1.836 2 1.143 4.993 2.987 2.986 4.234-4.61 11.649-5.607 17.554-5.794a48.407 48.407 0 0 1 23.387 4.99c2.421 1.222 4.562-2.421 2.132-3.647z" fill="#3a291d"/><path d="M331.063 347.934a15.472 15.472 0 0 0-3.036-14.405c-1.757-2.079-4.732.921-2.987 2.986a11.081 11.081 0 0 1 1.95 10.3c-.719 2.625 3.354 3.745 4.073 1.123z" fill="#3a291d"/><path d="M328.638 345.945c-8.8.961-25.179 1.565-30.222-7.632-1.307-2.384-4.956-.255-3.647 2.132 5.9 10.758 23.443 10.862 33.869 9.724 2.673-.292 2.7-4.518 0-4.224z" fill="#3a291d"/><path d="M327.111 347.636c-2.752 7.667-8.56 13.168-15.935 16.39-1.863.814-.253 3.544 1.6 2.735a31.348 31.348 0 0 0 17.39-18.283c.69-1.922-2.369-2.749-3.054-.842zM339.5 326.128c-13.689-3.022-32.276-3.478-44.878 3.539-1.781.992-.186 3.729 1.6 2.735 11.744-6.539 29.659-6.041 42.437-3.219 1.986.438 2.834-2.615.842-3.055z" fill="#3a291d"/><path fill="#72391d" fill-rule="evenodd" d="M456.853 304.199l3.734 8.714-6.224 7.469-12.448-3.734-11.204-2.49-14.938-1.245-9.959 2.49-4.98 1.245-9.959-12.449 13.694-9.959 11.204-4.979 17.428-1.245 2.489 2.49 11.204 2.49 9.959 6.224v4.979z"/><path d="M389.269 302.319c-1.558 3.564 1.7 7.566 3.67 10.331 2.77 3.9 4.886 7.4 10.1 6.086 16.861-4.248 33.328-4.172 49.5 2.888a2.244 2.244 0 0 0 2.559-.33c2.4-2.028 5.384-4.613 6.509-7.621 1.817-4.857-3.146-8.854-6.314-11.48v2.986c0-.455 1.17-.911 1.847-1.366a2.11 2.11 0 0 0 .839-3.53 39.113 39.113 0 0 0-23.554-10.724c.679.891 1.335 1.782 2.014 2.673.4-1.014.794-2.028 1.2-3.042a2.13 2.13 0 0 0-2.042-2.673c-15.348-.06-35.106 3.5-45.995 15.375-1.835 2 1.143 5 2.985 2.986 10.114-11.026 28.782-14.193 43.005-14.138l-2.036-2.673-1.209 3.043c-.555 1.4.825 2.551 2.036 2.673a34.3 34.3 0 0 1 20.522 9.487l.932-3.53a6.208 6.208 0 0 0-3.895 2.453c-.628.81-.988 2.221 0 2.986 3.32 2.568 7.2 5.112 4.108 9.179a25.682 25.682 0 0 1-3.934 3.949l2.559-.33a76.539 76.539 0 0 0-34.469-6.534c-5.718.281-10.966 1.782-16.558 2.7-4.165.687-5.168-.9-7.46-4.2-.531-.766-3.618-4.706-3.272-5.5 1.078-2.458-2.56-4.611-3.647-2.124z" fill="#3a291d"/><path d="M406.843 314.528c-1.99-4.959-1.414-15.42 2.147-19.612 1.75-2.06-1.223-5.061-2.986-2.986-4.549 5.354-5.818 17.279-3.234 23.72 1 2.492 5.087 1.4 4.073-1.122zM419.237 313.047a31.741 31.741 0 0 1 16.212-19.553c2.451-1.171.311-4.813-2.132-3.646-8.716 4.163-15.514 12.83-18.153 22.076-.747 2.618 3.327 3.736 4.073 1.123zM426.374 313.551c3.941-7.369 13.724-13.987 21.678-16.162 2.619-.716 1.507-4.792-1.123-4.073-8.947 2.447-19.758 9.792-24.2 18.1-1.282 2.4 2.363 4.532 3.647 2.132zM435.774 314.859c5.141-4.264 10.842-8.293 17.661-9.061 2.671-.3 2.7-4.528 0-4.224-8.053.908-14.538 5.231-20.647 10.3-2.094 1.737.908 4.71 2.986 2.987z" fill="#3a291d"/><path d="M412.55 314.343c.248-7.952 4.649-18.257 11.176-22.941 2.189-1.571.082-5.236-2.132-3.647-7.826 5.617-12.969 17.026-13.268 26.588-.085 2.718 4.139 2.716 4.224 0z" fill="#3a291d"/><path fill="#72391d" fill-rule="evenodd" d="M282.807 299.22l9.959-6.224 11.204-2.49 2.49-2.49 17.428 1.245 11.203 4.979 13.694 9.959-9.959 12.449-4.98-1.245-9.958-2.49-14.939 1.245-11.204 2.49-12.448 3.734-6.224-7.469 3.734-8.714v-4.979z"/><path d="M346.744 304.451c.3.7-2.352 4.151-2.875 4.927-1.947 2.889-3.132 5.517-6.992 5.027-5.877-.747-11.4-2.654-17.423-2.962a76.293 76.293 0 0 0-34.469 6.534l2.559.33a25.682 25.682 0 0 1-3.934-3.949c-3.089-4.067.788-6.611 4.108-9.179.978-.757.623-2.183 0-2.986a6.2 6.2 0 0 0-3.894-2.453l.931 3.53a34.3 34.3 0 0 1 20.522-9.487c1.212-.122 2.592-1.275 2.036-2.673l-1.208-3.043-2.036 2.673c14.229-.055 32.885 3.106 43.006 14.138 1.841 2.008 4.821-.985 2.986-2.986-10.887-11.869-30.648-15.435-45.992-15.375a2.126 2.126 0 0 0-2.037 2.673l1.209 3.042 2.036-2.673a38.992 38.992 0 0 0-23.508 10.724c-1.129 1.075-.844 3.164.69 3.53.677.455 1.789.911 1.789 1.366v-2.986c-3.167 2.623-8.071 6.632-6.256 11.48 1.123 3 4.047 5.6 6.445 7.621a2.335 2.335 0 0 0 2.619.33c16.206-7.074 32.641-7.085 49.533-2.888 5.218 1.3 7.339-2.178 10.117-6.086 1.949-2.741 5.232-6.775 3.678-10.331-1.084-2.484-4.719-.337-3.64 2.132z" fill="#3a291d"/><path d="M336.89 315.65c2.586-6.444 1.313-18.368-3.234-23.72-1.762-2.075-4.737.925-2.986 2.986 3.561 4.192 4.136 14.655 2.147 19.612-1.012 2.522 3.071 3.618 4.073 1.122zM324.5 311.924c-2.639-9.246-9.438-17.913-18.153-22.076-2.441-1.166-4.586 2.474-2.132 3.646a31.729 31.729 0 0 1 16.212 19.553c.745 2.609 4.821 1.5 4.073-1.123zM316.933 311.419c-4.443-8.308-15.252-15.655-24.2-18.1-2.625-.717-3.746 3.356-1.123 4.073 7.951 2.174 17.735 8.788 21.678 16.162 1.283 2.4 4.93.267 3.647-2.132zM306.872 311.872c-6.109-5.067-12.593-9.39-20.647-10.3-2.7-.3-2.675 3.922 0 4.224 6.815.767 12.522 4.8 17.661 9.061 2.077 1.723 5.081-1.249 2.986-2.987z" fill="#3a291d"/><path d="M331.334 314.343c-.3-9.562-5.444-20.973-13.268-26.588-2.212-1.587-4.323 2.074-2.132 3.647 6.532 4.687 10.928 14.986 11.176 22.941.085 2.711 4.309 2.723 4.224 0z" fill="#3a291d"/></g><g><path d="M381.909 458.743l-8.173 1.022h-7.152s-5.874-2.3-7.151-1.022-3.361 4.936-3.065 8.173c.256 2.811 27.967 5.109 28.606-2.043.272-3.053-3.065-6.13-3.065-6.13zm35.757-22.476c-2.3-3.831-4.086-1.788-5.108-1.022a3.214 3.214 0 0 0-1.022 3.065c1.022 4.251 1.873 6.1 1.022 12.26-.322 2.333 5.812 2.469 7.662-1.022 1.708-3.222-.255-9.448-2.554-13.281z" fill="#d6aa89" fill-rule="evenodd"/><path d="M333.715 445.545c24.525 5.174 50.807 3.93 75.2-1.419 2.178-.477 1.256-3.82-.921-3.342-23.748 5.207-49.476 6.457-73.358 1.418-2.176-.459-3.106 2.882-.921 3.343z" fill="#3a291d"/><path d="M406.869 439.394c3.237 1.9 3.365 5.858 2.022 9.024-.861 2.03 2.123 3.8 2.993 1.75 2.08-4.9 1.738-10.824-3.265-13.767a1.735 1.735 0 0 0-1.75 2.993zM331.61 437.541c-1.846 1.707-2.255 4.7-2.556 7.063-.272 2.129-.67 4.805.269 6.826s3.929.263 2.993-1.749c-.371-.8 0-3.439.14-4.56.189-1.544.385-4 1.6-5.129 1.641-1.518-.815-3.965-2.451-2.451zM355.365 459.469c3.844 2.174 9.022 2.177 13.3 2.2a61.073 61.073 0 0 0 16.382-1.79 1.734 1.734 0 0 0-.921-3.342 56.255 56.255 0 0 1-14.336 1.663c-3.973.035-9.1.3-12.675-1.727-1.944-1.1-3.693 1.894-1.75 2.993z" fill="#3a291d"/></g><g><path d="M359.825 548.827l-.182-.1-.021-.113-.11-.164.029-.15-.11-.435c-2.071-8.131-9.989-9.408-16.351-10.432l-1.026-.166a27.373 27.373 0 0 1-12.076-5.175l-.805-.6-.557.175a71.315 71.315 0 0 1-1.118-1.256c-1.792-2.039-3.822-4.349-6.61-5.441a36.835 36.835 0 0 0-3.7-1.163 26.673 26.673 0 0 1-4.061-1.351 16.782 16.782 0 0 1-2.76-1.605l-.328-.233-.174-.038-.075-.16-.356-.29a31.087 31.087 0 0 1-6.023-7.109l.551-.182.372-.513v.01c0-1.522-.72-3.138-.662-4.809l-.2-1.476-1.351-.428-.179-.365-.552-.384a16.1 16.1 0 0 1-5.271-6.56l-.522-1.171-1.083-.017a21.5 21.5 0 0 1-4.115-4.89c-.446-.734-.853-1.5-1.281-2.3-.563-1.057-1.146-2.15-1.84-3.2l-1.167-1.77-1.046.8a33.524 33.524 0 0 0-5.917-13.655c-2.083-2.825-2.706-5.432-3.483-9.392a11.23 11.23 0 0 0-6.081-8.559 15.327 15.327 0 0 0-1.237-.608 4.989 4.989 0 0 1-1.421-.822c-1.509-1.424-2.245-4.142-2.894-6.539-.2-.748-.4-1.473-.61-2.144l-.553-1.748a58.521 58.521 0 0 1-2.894-11.864 51.663 51.663 0 0 1-.068-6.542 54.442 54.442 0 0 0-.1-7.165 38.062 38.062 0 0 0-1.071-5.513 22.189 22.189 0 0 1-.96-7.051c.276-4.246.724-8.87 1.366-14.133l.1-.141.29.055.054-.032a66.89 66.89 0 0 1 1.741 9.223l.089.624c.053.378.1.793.161 1.233.469 3.723 1.111 8.822 4.441 10.806a11.366 11.366 0 0 0 2.9 1.132 5.37 5.37 0 0 1 2.337 1.042 10.051 10.051 0 0 1 1.923 3.24 19.622 19.622 0 0 0 1.509 2.922c.7 1.064 1.469 2.063 2.208 3.029a29.511 29.511 0 0 1 3.2 4.787c.582 1.187 1.071 2.42 1.588 3.726s1.043 2.632 1.68 3.94c.266.547.5 1.081.733 1.594 1.165 2.607 2.369 5.3 5.951 6.609a58.779 58.779 0 0 0 7.314 1.967c1.025.229 2.045.456 3.043.7l2.164.54.277-2.233a8.734 8.734 0 0 1 2.426-5.119l2.37.4-.375-2.633a28.965 28.965 0 0 1-.073-5.374l.083-1.044-.522-.431c3.853-7.241 11.337-12.518 17.953-17.181l.776-.548a10.969 10.969 0 0 1 5.141-1.6 17.651 17.651 0 0 0 5.18-1.308 40.426 40.426 0 0 0 4.317-2.441 20.777 20.777 0 0 1 6.6-3.13 68.025 68.025 0 0 1 13.806-1.534q1.146 0 2.305.047l.473.019.114-.052.1.046.366.023a58.049 58.049 0 0 1 5.908.67 31.068 31.068 0 0 0 5.081.392c1.988 0 3.932-.153 5.813-.3s3.813-.3 5.793-.3h.455l.488.329.745-.1a22.692 22.692 0 0 1 9.116 2.942 32.093 32.093 0 0 0 7.54 2.5 29.856 29.856 0 0 1 10.266 4.044 41.67 41.67 0 0 0 5.922 2.917c1.006.37 1.98.658 2.921.937a15.7 15.7 0 0 1 5.684 2.52 13.428 13.428 0 0 1 4.18 5.648 12.791 12.791 0 0 1 .658 3.021 24.105 24.105 0 0 0 .447 2.563 13.222 13.222 0 0 0 2.385 4.752c.3.431.615.875.922 1.365a32.14 32.14 0 0 1 2.948 7c.222.667.445 1.333.676 1.994a143.66 143.66 0 0 0 6.116 14.647l1.218 2.525 1.97-1.965c2.676-2.671 4.636-6.407 6.364-9.7.453-.864.893-1.7 1.329-2.489.446-.805.913-1.62 1.385-2.445a56.412 56.412 0 0 0 5.046-10.392l.182-.564-.038-.143.49-.395.015-.939a26.47 26.47 0 0 1 .565-4.329 30.656 30.656 0 0 0 .63-4.842l1.66 1.382 1.269-1.427a22.393 22.393 0 0 0 4.059-7.759l.337-.931-.056-.159.165-.122.419-1.082c.531-1.3 1.136-2.551 1.777-3.876a54.973 54.973 0 0 0 2.437-5.564c.581-1.642 1.16-3.4 1.821-5.541l.194-.626-.121-.355.291-.238.176-.59c.976-3.266 1.895-6.6 2.784-9.815L484.9 386a164.258 164.258 0 0 1 1.358 18.54l.008.513.09.16-.022.067-.056.5q.007 1.422-.012 2.845a38.137 38.137 0 0 1-.664 7.7c-.233 1.059-.526 2.118-.81 3.141a27.674 27.674 0 0 0-1.379 8.327l-.629.6.309 1.153a18.684 18.684 0 0 1 .65 5.01v.514l.1.2-.092.106-.031.245-.422-.018-.6.553a23.431 23.431 0 0 0-3.259 3.665l-.735.53-.067.89a3.571 3.571 0 0 1-.5 1.661l-.427.324-.163.44c-.111.265-.212.576-.3.852-.035.108-.065.208-.093.281L475.37 449l-1.082.7.448 1.267c.309 1 .571 1.769.782 2.769h-.762l-.556 1.295a42.07 42.07 0 0 1-1.35 2.532 27.316 27.316 0 0 0-.862 1.589c-2.694 5.468-4.807 9.664-6.851 13.55a22.113 22.113 0 0 1-4.383 5.205c-.914.888-1.859 1.813-2.729 2.8-.606.688-1.228 1.384-1.857 2.084a70.441 70.441 0 0 0-7.969 10.043l-.372.61.1.708a12.685 12.685 0 0 1-.45 6.274L446.9 500l-1.154.748c-2.457 1.593-4.547 2.948-7.1 2.961l-1.059-.224-.694.783a9.461 9.461 0 0 1-2.593 1.826l-.337.168a7.333 7.333 0 0 1-1.972.778l-1.708.233-.007 1.739a22.636 22.636 0 0 1-4.169 13.463l-.429-.07-.455.237-2.728.271.4.808c-.3.13-.607.252-.907.363a16.632 16.632 0 0 1-3.015.783l-1.309.223-.294 1.313c-.236.5-1.243.868-2.136 1.2-.278.1-.55.2-.808.308a12.343 12.343 0 0 1-4.669.978q-.336 0-.677-.021l-1.538-.4-.663 1.437a45.167 45.167 0 0 1-4.28 6.864l-1.115-.06-.424 1.462a76.984 76.984 0 0 1-2.032 5.58l-.9-.009a61.174 61.174 0 0 1-11.247-1.149l-1.382-.272-.71 1.227c-.192.332-.387.664-.588.994l-.187.036a15.65 15.65 0 0 1-2.227.163 14.993 14.993 0 0 1-2.607-.231l-1.673-.3-.954 2.827.088.274-1.964.25c-4.842.62-9.845 1.262-14.77 1.439zm35.435-61.406l.832 1.308 1.309-.441a30.637 30.637 0 0 0 4.052.333 11.994 11.994 0 0 0 8.346-3.112c.186-.161.362-.322.538-.482l.364-.331.077-.121.135-.064.537-.5a25.218 25.218 0 0 1 3.15-2.626l.07-.045.355-.285.08-.128.233-.018.418-.265c1.708-1.087 3.492-2.125 5.218-3.129 2.784-1.62 5.665-3.3 8.4-5.27l1.181-.851-.448-1.394a20.427 20.427 0 0 0-3.751-6.21 17.187 17.187 0 0 1-3.316-5.474 26.36 26.36 0 0 1-.923-6.241 13.8 13.8 0 0 1 .048-1.513c.1-1.581.237-3.549-1.264-4.9-1.7-1.534-4.509-2.261-6.99-2.9-.741-.191-1.43-.368-1.994-.551-3.948-1.279-7.858-2.414-10.824-3.26-2.424-.692-4.9-1.34-7.288-1.968-3.148-.825-6.4-1.679-9.547-2.633a40.661 40.661 0 0 1-4.779-1.91 35.114 35.114 0 0 0-6.817-2.5 18.3 18.3 0 0 0-3.936-.414 28.728 28.728 0 0 0-14.606 4.53h-.024l-.267.031h-.652c-1.385 0-2.755.087-4.08.17s-2.572.163-3.833.163c-.249 0-.5 0-.748-.009l-.9-.029c-.814-.026-1.613-.052-2.405-.052a17.986 17.986 0 0 0-6.244.947l-.566.206-.238.325a39.529 39.529 0 0 0-8.513 3.714l-.651.354-.276.612a11.225 11.225 0 0 1-2.722 3.711l-2.541 2.301 2.546.848a63.206 63.206 0 0 0-1.489 2.762 27.566 27.566 0 0 1-3.009 4.949l-1.276 1.546 1.2 1-.141.357.282.527-3.473 4.311 2.352 1.065c.748.339 1.415.666 2.031.992l-.031.429.535.583c3.29 7.219 8.694 10.463 13.552 12.684l.185.084.093.021.074.051.164.072c.671.3 1.354.59 2.057.876l.187.077c1.219.494 2.421.981 3.619 1.442l1.016.391.326-.245.067.394 1.12.384a32.059 32.059 0 0 0 10.7 2q.649 0 1.31-.032l2.526.676-.1-2.7a95.852 95.852 0 0 1 1.85-24.651h.008c4.213-1.731 9.186-1.971 13.934-1.971h1.019c.555 0 1.186-.017 1.863-.037.741-.021 1.542-.045 2.354-.045.961 0 3.883 0 5.283.821 1.309.769 2.072 4.707 2.481 6.823.157.812.3 1.547.449 2.133 1.659 6.548 3.046 13.429 4.124 20.453l.369 2.4 2.262-.824a55.51 55.51 0 0 0 2.4-.925v.193l.691.557z" fill="#72391d"/><path d="M474.024 452.678c.047-.233-.055-.268 0 0z" fill="#c47546"/><path d="M414 411.833s3.167 10.167 1.5 17.5a33.914 33.914 0 0 1-5.833 12.5l6.666 2a15.969 15.969 0 0 0 7.5-11.666 68.784 68.784 0 0 0 .111-15.2z" fill="#bcafaa"/><path d="M483.7 394.251a4.517 4.517 0 0 0 1.115.554q.231 3.016.348 6.038a19.413 19.413 0 0 0-2.618-2.54q.6-2.02 1.155-4.052zM346.689 484.581c-8.232 8.107-13.712 19.042-16.678 30.456a69.347 69.347 0 0 1 10.658-32.1 42.459 42.459 0 0 0 6.02 1.644zM316.861 420.454c2.123-1.768 4.359-3.4 6.554-4.935a42.98 42.98 0 0 0-1.96 8.23c-.776 5.088-2.045 12.821 2.126 16.791a11.323 11.323 0 0 1-2.519 3.169c-6.209-6.051-6.154-13.453-4.075-22.2a1.445 1.445 0 0 0-.126-1.055zM386.46 404.676c3.981 5.524 5.345 12.031 5.08 18.782-.127 3.239-.315 8.26-2.254 11.182-1.96-.567-3.847-1.223-5.716-1.918a57.039 57.039 0 0 0 2.269-18.772c-.154-2.878-.2-6.764-1.835-9.39q1.152-.115 2.308-.139a1.6 1.6 0 0 0 .148.255zM440.029 443.135a1.285 1.285 0 0 0-.481 1.142c.423 7.454-6.879 15.211-12.105 19.881a25.603 25.603 0 0 1-1.372-1.81 14.973 14.973 0 0 1-1.155-2.046 46.737 46.737 0 0 0 8.8-12.348 43.463 43.463 0 0 0 4.036-9.73 14.419 14.419 0 0 1 .915 1.69 98.541 98.541 0 0 1 1.362 3.221zM430.782 422.067a9.615 9.615 0 0 1 1.012 1.46 24.113 24.113 0 0 1-9.711 20.173 1.57 1.57 0 0 0-.235.139l-.883.649q-.982-.495-1.991-.955a28.031 28.031 0 0 0 6.469-25.012 12.033 12.033 0 0 1 5.339 3.546zM411.966 412.53c2.2 3.551 2.161 8.82 2.065 12.836-.114 4.734-.608 10.94-4.413 14.254a1.531 1.531 0 0 0-.285.336 161.382 161.382 0 0 0-7.164-2c4.266-7.84 4.492-19.859.518-28.143a42.706 42.706 0 0 1 6.377 1.441 25.921 25.921 0 0 1 2.902 1.276zM361.451 403.57a41.987 41.987 0 0 0-2.7 15.525c-.009 2.894.085 7.834 2.083 10.682a31.592 31.592 0 0 0-6.4 2.925c-5.6-7.252-3.217-21.633 2.16-28.269a1.56 1.56 0 0 0 .324-.69 31.3 31.3 0 0 1 4.533-.173zM343.869 406.874a31.287 31.287 0 0 0-6.019 14.2c-.63 4.051-1.138 8.99 1.362 12.289a15.081 15.081 0 0 0-4.784 1.046c-2.879-.192-2.387-10.105-2.25-11.55.354-3.741.77-9.091 3.92-11.567a1.561 1.561 0 0 0 .2-.189 7.31 7.31 0 0 0 1.066-.6 34.966 34.966 0 0 1 6.505-3.629zM305.777 440.619c1.436 6.746 5.225 12.64 10.811 17.531l-1.55 1.928c-4.627-3.007-10.131-8.854-10.7-14.369a1.519 1.519 0 0 0-.49-.99 7.538 7.538 0 0 1 1.929-4.1zM292.915 445.848c-6.927 3.363-12.987 11.179-15.969 18.372-.068-.362-.137-.729-.211-1.106a17.821 17.821 0 0 0-2.291-6.67c.418-2.552 2.152-5.168 3.579-7.142 1.961-2.713 4.745-5.756 8.211-6.239a5.282 5.282 0 0 0 1.947 1.32 33.133 33.133 0 0 0 4.734 1.465zM259.165 399.088a1.5 1.5 0 0 0 .835-.443c.126 1.086.257 2.173.416 3.248a1.418 1.418 0 0 0-.756.632l-.878 1.452c.104-1.631.237-3.261.383-4.889zM263.674 411.471a15.824 15.824 0 0 0-3.068 3.863c-.357-2.169-.976-4.212-1.4-6.309.015-.023.033-.04.047-.064l1.927-3.187a17.812 17.812 0 0 0 2.209 5.315c.093.145.189.262.285.382zM264.989 445.728c-.921-2.938-1.97-5.906-2.787-8.918a126.321 126.321 0 0 1 9.562-19.513c1.122 1.559 2.039 3.317 3.334 5.072.72.977 1.368 1.976 1.987 2.985a1.593 1.593 0 0 0-.392.383 60.673 60.673 0 0 0-10.293 23.939 25.521 25.521 0 0 1-1.411-3.948zM283.675 477.282c.007-.031.02-.056.026-.087 1.362-6.89 10.3-12.171 17.6-13.854a55.941 55.941 0 0 0-15.957 19.059 30.645 30.645 0 0 0-1.669-5.118zM305.337 512.626v-.018c-2-14.695 6.348-30.579 17.143-40.143a20.659 20.659 0 0 0 1.9 2.16 67.177 67.177 0 0 0-15.733 42.55 20.251 20.251 0 0 1-3.31-4.549z" fill="#4c2714"/><path d="M351.21 538.091a17.6 17.6 0 0 0-2.291-.705c-8.3-15.235-.731-34.941 5.244-50.215.314 4.994.8 9.978 1.28 14.913 1.167 11.879 4.264 26.487.027 38.11a23.194 23.194 0 0 0-4.26-2.103z" fill="#bcafaa"/><path d="M391.925 490.147c-.082-.62-.185-1.238-.272-1.858a59.4 59.4 0 0 0 2.4-.924c11.138 17.317 11.872 36.712 4.339 55.376a58.918 58.918 0 0 1-10.417-.967c7.519-15.49 6.109-35.189 3.95-51.627z" fill="#4c2714"/><path d="M410.089 527.961a1.091 1.091 0 0 0-.093-.056 47.537 47.537 0 0 0-1.5-40.336 18.114 18.114 0 0 0 1.909-1.383c4.549 3.654 7.047 10.194 8.41 15.626 2.058 8.2 1.564 16.756-2.654 24.179-.013.023-.019.047-.031.07a13.814 13.814 0 0 1-6.041 1.9z" fill="#bcafaa"/><path d="M434.208 505.021a11.18 11.18 0 0 1-2.078 1.032c-.9-10.038-6.482-20.149-14.349-25.528 1.544-.972 3.127-1.9 4.718-2.816a1.515 1.515 0 0 0 .34.5c3.067 3.053 7.042 4.906 10.152 7.935 4.548 4.431 7.493 11.622 2.942 17.195a1.559 1.559 0 0 0-.34.766 9.021 9.021 0 0 1-1.385.916zM457.773 479.676a37.494 37.494 0 0 0-1.216-6.3c-.977-3.751-2.391-8.016-5.383-10.639a1.684 1.684 0 0 0-.24-.171 21.188 21.188 0 0 0 4.1-4.858 89.561 89.561 0 0 1 8.962 15.223c-.121.18-.235.367-.359.541a70.539 70.539 0 0 1-5.864 6.204zM473.729 453.251a12.736 12.736 0 0 0-1.071 2.314c-.411.866-.835 1.726-1.258 2.587a23.794 23.794 0 0 0-8.894-13.808 54.292 54.292 0 0 0 3.152-6.507 33.635 33.635 0 0 1 8.427 14.636 1.525 1.525 0 0 0 .16.794 2.466 2.466 0 0 1-.221-.589 1.379 1.379 0 0 1-.295.573zM480.238 437.267a21 21 0 0 0-1.511-4.369c-1.8-3.67-4.78-5.533-7.779-7.67a20.644 20.644 0 0 0 3.514-6.29c.076-.2.16-.393.238-.591 4.7 4.366 8.1 9.723 8.043 16.348a1.562 1.562 0 0 0-.472.513 24.085 24.085 0 0 0-2.033 2.059z" fill="#4c2714"/><path d="M474.024 452.678c.047-.233-.055-.268 0 0z" fill="#4c2714"/><path d="M332.817 478.662s-10.15 11.671-11.484 22-2.166 12.166-1.166 17a87.1 87.1 0 0 0 2.333 8.838s-2.333-.667-5.333-1.833a83.13 83.13 0 0 1-8-4s-.667-12.834 4.166-24.167a151.06 151.06 0 0 1 12.5-22.5z" fill="#bcafaa"/><path d="M369.335 404.022c-2.29 7.316-4.879 17.244-2.691 24.852a1.5 1.5 0 0 0 2.893-.8c-2.047-7.12.547-16.409 2.691-23.257.578-1.847-2.317-2.637-2.893-.8zM362.281 401.575a40.968 40.968 0 0 0-3.544 17.52c-.01 3.634.117 10.527 4.047 12.4a1.531 1.531 0 0 0 2.2-.9l.09-.232a1.51 1.51 0 0 0-.689-1.694l-.168-.1a1.5 1.5 0 0 0-1.514 2.591l.168.1-.69-1.694-.089.232 2.2-.9c-3.333-1.592-2.629-9.109-2.515-12.189a35.039 35.039 0 0 1 3.089-13.631c.8-1.742-1.786-3.268-2.591-1.514zM354.483 402.312c-6.674 8.236-9.223 24.959-1.545 33.293 1.311 1.423 3.429-.7 2.122-2.121-6.413-6.961-4.033-22.169 1.545-29.051 1.2-1.487-.905-3.622-2.122-2.121z" fill="#3a291d"/><path d="M346.979 403.271a31.738 31.738 0 0 0-9.142 17.8c-.76 4.88-1.37 11.068 3.323 14.108 1.625 1.053 3.131-1.543 1.514-2.59-4.162-2.7-2.1-11.254-1.013-14.979a28.439 28.439 0 0 1 7.439-12.218 1.5 1.5 0 0 0-2.121-2.121zM333.987 409.168c-4.553 3.579-4.974 11.6-4.963 16.926.006 3.312.661 11.822 5.627 11.313 1.9-.195 1.922-3.2 0-3-3.113.319-2.6-10.1-2.459-11.551.352-3.726.761-9.087 3.916-11.567 1.517-1.192-.619-3.3-2.121-2.121z" fill="#3a291d"/><path d="M328.544 410.037c-4.893.163-6.558 10.14-7.1 13.712-.8 5.277-2.173 13.417 2.617 17.242 1.5 1.193 3.631-.917 2.122-2.121-3.458-2.761-2.464-8.6-2.056-12.52.192-1.847 1.739-13.223 4.42-13.313 1.926-.064 1.935-3.064 0-3z" fill="#3a291d"/><path d="M314.107 420.706c-1.343 5.655-2.684 11.671-.633 17.332 1.552 4.282 4.711 7.464 8.275 10.163 1.539 1.165 3.035-1.439 1.514-2.591-8.438-6.39-8.556-14.453-6.263-24.106.446-1.877-2.446-2.678-2.893-.8zM305.433 429.916c-1.6 11.475 2.873 21.184 11.534 28.583 1.46 1.248 3.592-.864 2.121-2.121-7.763-6.633-12.215-15.246-10.762-25.665.264-1.888-2.626-2.7-2.893-.8zM301.352 445.709c.718 6.969 7.138 13.988 12.941 17.438a1.5 1.5 0 0 0 1.515-2.59c-4.785-2.845-10.858-9.047-11.456-14.848-.2-1.9-3.2-1.921-3 0zM318.8 464.2c-12.561 4.267-23.54 19.424-25.016 32.452-.217 1.915 2.785 1.9 3 0 1.316-11.615 11.671-25.774 22.813-29.559 1.818-.617 1.038-3.516-.8-2.893zM320.63 469.678c-11.735 9.972-20.99 27.225-19.278 42.93.207 1.9 3.209 1.919 3 0-1.635-15 7.2-31.292 18.4-40.809 1.473-1.252-.658-3.365-2.122-2.121z" fill="#3a291d"/><path d="M324.706 473.923a67.573 67.573 0 0 0-16.669 47.17c.074 1.925 3.074 1.934 3 0a64.467 64.467 0 0 1 15.79-45.049c1.264-1.45-.849-3.58-2.121-2.121z" fill="#3a291d"/><path d="M332.079 477.171c-11.182 12.356-17.187 33.372-11.02 49.335.689 1.782 3.591 1.007 2.893-.8-5.779-14.957-.261-34.8 10.248-46.416 1.293-1.428-.823-3.556-2.121-2.121z" fill="#3a291d"/><path d="M339.255 479.671c-10.4 14.76-14.013 33.806-11.991 51.569.216 1.9 3.219 1.918 3 0-1.97-17.31 1.441-35.666 11.582-50.055 1.114-1.582-1.486-3.082-2.591-1.514z" fill="#3a291d"/><path d="M348.472 482.873c-13.183 11.748-19.859 30.448-20.991 47.7-.127 1.928 2.874 1.92 3 0 1.082-16.5 7.521-34.361 20.113-45.582 1.444-1.287-.684-3.4-2.122-2.121zM352.4 483.519c-6.43 16.548-15.466 38.516-5.934 55.619.94 1.687 3.532.176 2.59-1.514-9.05-16.24.137-37.607 6.237-53.308.7-1.8-2.2-2.58-2.893-.8z" fill="#3a291d"/><path d="M355.867 456.624c-3.4 14.91-1.917 30.4-.437 45.46 1.195 12.167 4.439 27.17-.264 38.935-.716 1.792 2.184 2.571 2.893.8 4.491-11.234 1.812-25.193.66-36.817-1.556-15.707-3.512-32 .041-47.577.429-1.88-2.463-2.682-2.893-.8z" fill="#3a291d"/><path d="M357.712 458.469c5.116-2.128 11.119-2.156 16.578-2.013a35.485 35.485 0 0 1 7.022.566c1.262.3.1-.727.631.566 2.536 6.224 3.656 13.423 4.926 19.979a178.988 178.988 0 0 1 3.592 33.791c.01 11.25-1.214 23.263-7.319 33-1.029 1.64 1.565 3.148 2.59 1.514 10.181-16.23 8.557-38.369 6.1-56.5a221.921 221.921 0 0 0-4.772-24.74c-.677-2.671-1.21-8.647-3.863-10.19-2.634-1.533-7.754-1-10.624-1.01-5.164-.028-10.824.136-15.66 2.148-1.757.731-.986 3.635.8 2.893z" fill="#3a291d"/><path d="M371.954 455.453c-1.489 13.313 2.654 26.871 5.06 39.844 3.23 17.415 4.513 35-1.579 51.971-.654 1.82 2.244 2.6 2.892.8 5.7-15.868 5.153-32.465 2.413-48.869-2.385-14.277-7.419-29.143-5.786-43.743.215-1.915-2.787-1.9-3 0zM366.172 456.055c-4.174 15.654-1.583 32.315-.282 48.187 1.141 13.915 3.509 32.869-7.942 43.364-1.426 1.307.7 3.424 2.121 2.121 10.815-9.912 10.115-26.612 9.232-40.022-1.143-17.346-4.8-35.73-.236-52.853a1.5 1.5 0 0 0-2.893-.8zM394.026 487.337c11.426 17.744 11.924 37.648 3.819 56.713-.746 1.757 1.837 3.287 2.591 1.514 8.531-20.07 8.224-41.038-3.82-59.741-1.042-1.618-3.639-.116-2.59 1.514z" fill="#3a291d"/><path d="M405.39 488.086a44.506 44.506 0 0 1-3.775 48.358c-1.176 1.53 1.428 3.025 2.59 1.515a47.444 47.444 0 0 0 3.775-51.387c-.932-1.691-3.524-.179-2.59 1.514z" fill="#3a291d"/><path d="M409.562 485.561c5.1 3.506 7.794 10.5 9.237 16.251 2.056 8.192 1.569 16.75-2.653 24.179a1.5 1.5 0 0 0 2.591 1.514c4.614-8.12 5.206-17.522 2.955-26.491-1.654-6.59-4.82-14.062-10.616-18.044-1.6-1.1-3.1 1.5-1.514 2.591z" fill="#3a291d"/><path d="M414.007 481.723c13.068 7.025 20.419 28.126 10.961 40.636-1.165 1.54 1.439 3.036 2.59 1.514 10.419-13.782 2.349-37.006-12.037-44.74-1.7-.915-3.217 1.674-1.514 2.59z" fill="#3a291d"/><path d="M422.829 478.211c3.064 3.05 7.045 4.909 10.152 7.935 4.562 4.444 7.5 11.607 2.943 17.195-1.212 1.483.9 3.618 2.121 2.121a14.038 14.038 0 0 0 1.655-15.216c-3.173-6.8-9.748-9.179-14.75-14.156a1.5 1.5 0 0 0-2.121 2.121z" fill="#3a291d"/><path d="M430.4 472.364a27.678 27.678 0 0 1 12.2 10.206c2.645 4.116 6.3 13.042 3.751 17.928-.891 1.71 1.7 3.229 2.591 1.514 2.678-5.142.158-13.39-2.211-18.209a30 30 0 0 0-14.812-14.029c-1.746-.788-3.273 1.8-1.514 2.59zM374.592 404.915q-.474 12.585-1.193 25.158c-.11 1.929 2.89 1.923 3 0q.718-12.573 1.193-25.158c.073-1.931-2.927-1.928-3 0zM380.728 405.282c2.816 2.46 2.247 9.158 2.193 12.423A55.5 55.5 0 0 1 380.386 433c-.562 1.851 2.333 2.642 2.893.8a57.481 57.481 0 0 0 2.573-19.845c-.183-3.446-.2-8.34-3-10.789-1.448-1.265-3.579.848-2.121 2.121zM386.448 404.676c3.988 5.533 5.342 12.043 5.078 18.782-.132 3.363-.316 8.649-2.478 11.517-1.163 1.541 1.441 3.038 2.59 1.514 2.492-3.3 2.733-9.088 2.888-13.031.283-7.2-1.228-14.386-5.487-20.3-1.119-1.552-3.722-.056-2.591 1.514zM398.672 408.737c5.213 7.847 5.091 21.584 0 29.238-1.072 1.612 1.526 3.116 2.591 1.514 5.672-8.529 5.771-23.579 0-32.266-1.064-1.6-3.663-.1-2.591 1.514zM411.914 412.452c2.25 3.558 2.2 8.871 2.1 12.914-.114 4.721-.594 10.932-4.409 14.254-1.458 1.271.671 3.385 2.122 2.122 4.168-3.631 4.993-10.028 5.246-15.235.236-4.863.239-11.284-2.472-15.57-1.029-1.627-3.626-.123-2.59 1.515zM422.021 417.26a25.02 25.02 0 0 1-6.029 25.106c-1.349 1.383.77 3.506 2.121 2.121a28.076 28.076 0 0 0 6.8-28.025c-.564-1.841-3.46-1.056-2.893.8zM431.78 423.308a24.117 24.117 0 0 1-10.874 21.218l1.514 2.59.935-.686c1.54-1.131.045-3.736-1.514-2.591l-.935.687c-1.522 1.118-.127 3.671 1.514 2.59a27.208 27.208 0 0 0 12.36-23.808c-.062-1.925-3.062-1.934-3 0z" fill="#3a291d"/><path d="M435.187 433.621c.485 8.4-6.925 19.356-12.767 24.946-1.4 1.338.726 3.457 2.122 2.122a46.4 46.4 0 0 0 9.186-12.735c2.277-4.477 4.756-9.2 4.459-14.333-.11-1.919-3.111-1.932-3 0zM439.535 444.277c.437 7.714-7.409 15.774-12.681 20.4-1.454 1.275.675 3.39 2.122 2.121 5.893-5.169 14.044-13.957 13.559-22.518-.109-1.92-3.11-1.933-3 0zM310.557 457.844c-10.73 4.6-20.923 15.071-25.806 25.744-.8 1.743 1.787 3.27 2.59 1.515 4.7-10.274 14.413-20.245 24.73-24.669 1.769-.758.243-3.343-1.514-2.59z" fill="#3a291d"/><path d="M305.621 459.771c-8.772.1-22.9 7-24.8 16.626-.372 1.886 2.519 2.693 2.893.8 1.642-8.3 14.375-14.341 21.907-14.424a1.5 1.5 0 0 0 0-3zM298.49 444.209c-10.738 1.01-20.767 14.713-23.04 24.535-.435 1.879 2.457 2.681 2.893.8 1.94-8.383 10.893-21.462 20.147-22.333 1.906-.179 1.924-3.181 0-3zM286.841 440c-4.459.223-7.946 3.323-10.577 6.691-2.276 2.913-4.713 6.718-4.906 10.532-.1 1.93 2.9 1.925 3 0 .141-2.788 2.1-5.738 3.677-7.922 2.06-2.854 5.051-6.113 8.806-6.3 1.922-.1 1.933-3.1 0-3zM276.681 425.737a60.771 60.771 0 0 0-10.843 27.141c-.266 1.888 2.624 2.7 2.893.8a59 59 0 0 1 10.54-26.424c1.125-1.574-1.476-3.073-2.59-1.515zM270.562 413.6a125.258 125.258 0 0 0-11.262 22.476c-.716 1.793 2.185 2.572 2.893.8a121.313 121.313 0 0 1 10.963-21.757c1.061-1.62-1.535-3.125-2.59-1.514zM263.794 411.345a15.979 15.979 0 0 0-4.806 7.941c-.484 1.871 2.409 2.669 2.893.8a13.159 13.159 0 0 1 4.035-6.618c1.44-1.291-.687-3.407-2.122-2.121zM259.648 402.525l-2.975 4.922a1.5 1.5 0 0 0 2.59 1.514l2.976-4.922a1.5 1.5 0 0 0-2.591-1.514zM258.3 395.694l-.678 1.173a1.5 1.5 0 1 0 2.59 1.514l.678-1.173a1.5 1.5 0 0 0-2.59-1.514zM259.337 390.832s2-3 0-3a1.5 1.5 0 0 0 0 3zM449.062 464.864c3.921 3.436 6.9 13.1 5.556 18.24a1.5 1.5 0 0 0 2.892.8c.869-3.31-.1-7.3-.94-10.52-.976-3.746-2.385-8.008-5.387-10.639-1.446-1.268-3.577.846-2.121 2.122zM454.1 456.485a88.142 88.142 0 0 1 10.089 16.886c.817 1.747 3.4.226 2.591-1.515a91.327 91.327 0 0 0-10.558-17.492c-1.185-1.522-3.294.615-2.122 2.121zM459.814 446.087a20.755 20.755 0 0 1 9.2 16.689c.067 1.926 3.067 1.935 3 0a23.926 23.926 0 0 0-10.683-19.28c-1.606-1.081-3.109 1.517-1.514 2.591zM463.8 436.068a33.853 33.853 0 0 1 10.888 18.966c.381 1.891 3.273 1.09 2.893-.8a36.461 36.461 0 0 0-11.66-20.289c-1.441-1.276-3.57.838-2.121 2.121zM465.681 424.871c2.533 2.3 5.839 3.669 8.178 6.165 2 2.128 5.373 8.471 3.33 11.48l2.356-.3-.122-.113.234 1.818.075-.106c1.116-1.579-1.484-3.08-2.591-1.514l-.074.106a1.5 1.5 0 0 0 .234 1.817l.122.113a1.525 1.525 0 0 0 2.356-.3c1.928-2.839.294-8.408-1.04-11.133-2.431-4.961-7.053-6.627-10.937-10.149-1.427-1.294-3.555.821-2.121 2.122zM472.75 416.65c6.057 4.968 10.6 11.314 9.914 19.5l1.5-1.5.754.438c-1.016-1.637-3.613-.133-2.59 1.514a1.878 1.878 0 0 0 1.836 1.048 1.534 1.534 0 0 0 1.5-1.5c.743-8.863-4.182-16.195-10.792-21.617-1.481-1.215-3.616.9-2.122 2.121zM477.444 408.6a32.052 32.052 0 0 1 7.232 6.938c1.15 1.52 3.756.027 2.59-1.514a36.557 36.557 0 0 0-8.308-8.015c-1.587-1.107-3.088 1.493-1.514 2.591zM479.687 399.88a16.217 16.217 0 0 1 5.655 6.809c.575 1.261 2.371.753 2.742-.358l.242-.727c.611-1.836-2.285-2.623-2.893-.8l-.242.727 2.741-.358a19.047 19.047 0 0 0-6.731-7.886c-1.6-1.087-3.1 1.511-1.514 2.591zM482.271 392.553a4.322 4.322 0 0 0 3.737 2.49 1.508 1.508 0 0 0 1.5-1.5 1.535 1.535 0 0 0-1.5-1.5c-.127-.009-.176-.037-.028 0a3.231 3.231 0 0 1-.345-.1c-.217-.078.163.1-.035-.024a3.56 3.56 0 0 1-.306-.191c.128.1.03.023-.029-.042s-.136-.136-.2-.212c.129.161-.011-.037-.052-.111a3.248 3.248 0 0 1-.156-.326 1.509 1.509 0 0 0-2.052-.538 1.539 1.539 0 0 0-.538 2.052zM484.337 386.732s2-3 0-3a1.5 1.5 0 0 0 0 3zM318.173 466.473c2.8 6.19 7.336 10.226 13.542 12.862 7.016 2.981 13.947 6.152 21.723 5.736 1.92-.1 1.932-3.1 0-3-6.39.342-11.781-1.911-17.581-4.264-6.8-2.76-11.981-5.957-15.094-12.848-.793-1.757-3.379-.233-2.59 1.514zM293.7 497.653a18.223 18.223 0 0 0 7.371 9.476l-.538-2.053-.174.274c-1.035 1.636 1.56 3.143 2.591 1.514l.173-.273a1.528 1.528 0 0 0-.538-2.053 14.907 14.907 0 0 1-5.993-7.683c-.625-1.814-3.524-1.034-2.892.8zM301.61 513.922c2.878 4.365 5.829 8.136 10.694 10.364 2.543 1.165 5.3 1.55 7.864 2.557 2.985 1.17 5.063 4.154 7.247 6.473 1.326 1.408 3.445-.716 2.121-2.121-2.97-3.154-5.128-6.242-9.352-7.448-7.3-2.084-11.772-4.952-15.983-11.339-1.059-1.605-3.658-.1-2.591 1.514z" fill="#3a291d"/><path d="M327.785 532.953a30.013 30.013 0 0 0 13.75 6.266c6.963 1.14 14.792 1.875 16.194 10.16.322 1.9 3.214 1.094 2.893-.8-.935-5.523-3.532-8-8.6-10.158a31.941 31.941 0 0 0-8.487-1.945 27.671 27.671 0 0 1-13.632-5.647c-1.5-1.173-3.643.935-2.121 2.122z" fill="#3a291d"/><path d="M359.622 551.009c5.934-.188 11.812-1.03 17.7-1.77 1.89-.238 1.913-3.241 0-3-5.884.74-11.762 1.582-17.7 1.77-1.926.06-1.935 3.06 0 3z" fill="#3a291d"/><path d="M378.284 546.382a17.084 17.084 0 0 0 6.4.123c1.9-.314 1.094-3.205-.8-2.893a13 13 0 0 1-4.807-.123c-1.883-.4-2.688 2.5-.8 2.893z" fill="#3a291d"/><path d="M386.239 544.5a62.774 62.774 0 0 0 13.144 1.251 1.5 1.5 0 0 0 0-3 58.9 58.9 0 0 1-12.347-1.144c-1.885-.38-2.691 2.511-.8 2.893zM409.294 527.732h-.336c-1.946 0-1.912 3 0 3.125a14.011 14.011 0 0 0 6.213-1.1c1.518-.613 3.551-1.085 4.116-2.771.614-1.835-2.282-2.607-2.893-.782-.038.112-.075.231-.113.343.23-.3.649-.594.879-.892a14.5 14.5 0 0 1-7.823 2.324v2.75h-.043a1.5 1.5 0 0 0 0-3z" fill="#3a291d"/><path d="M419.083 526.88a18.839 18.839 0 0 0 3.6-.923 22.777 22.777 0 0 0 1.646-.689q.423-.2.835-.414.893-.324-.162-.317l-.9-2.2-.034.054 2.356-.3-.034-.027c-1.5-1.188-3.633.921-2.121 2.122l.033.026a1.529 1.529 0 0 0 2.356-.3l.035-.055a1.517 1.517 0 0 0-.9-2.2c-1.1-.367-2.288.731-3.232 1.142a17.66 17.66 0 0 1-4.28 1.2c-1.9.305-1.094 3.2.8 2.893zM431.038 508.967c1.457.366 2.86-.448 4.145-1.081a11.031 11.031 0 0 0 3.469-2.555c1.269-1.446-.845-3.576-2.121-2.121a8.124 8.124 0 0 1-2.33 1.811c-.5.267-1.912 1.167-2.366 1.053-1.873-.47-2.672 2.423-.8 2.893z" fill="#3a291d"/><path d="M438.662 505.7c3.567-.019 6.281-2.1 9.176-3.929 1.627-1.03.123-3.627-1.514-2.59-2.363 1.5-4.742 3.5-7.662 3.519a1.5 1.5 0 0 0 0 3zM391.5 488.348a66.963 66.963 0 0 0 4.048-1.6 1.51 1.51 0 0 0 .538-2.053 1.539 1.539 0 0 0-2.052-.538 56.75 56.75 0 0 1-3.331 1.294 1.538 1.538 0 0 0-1.048 1.845 1.513 1.513 0 0 0 1.845 1.048zM397.55 489.292c6 .8 9.741-.012 14.12-4.2 5.467-5.231 13.123-8.054 19.161-12.681 1.511-1.158.019-3.765-1.514-2.59-5.014 3.842-10.591 6.438-15.816 9.9a51.241 51.241 0 0 0-5 4.27c-3.525 3.038-6.7 2.871-10.952 2.3-1.908-.254-1.889 2.749 0 3zM284.759 486.653c1.628 2.02 2.6 4.435 3.94 6.638a23.441 23.441 0 0 0 4.624 5.46c1.446 1.269 3.576-.845 2.121-2.121-3.9-3.423-5.388-8.158-8.564-12.1-1.211-1.5-3.322.631-2.121 2.122zM316.69 462.772l2.547-3.169a1.547 1.547 0 0 0 0-2.122 1.511 1.511 0 0 0-2.121 0l-2.548 3.169a1.547 1.547 0 0 0 0 2.122 1.512 1.512 0 0 0 2.122 0z" fill="#3a291d"/><path d="M318.292 457.187c2.63-2.7 3.84-6.26 5.786-9.416 1.016-1.648-1.577-3.156-2.59-1.514-1.8 2.916-2.893 6.318-5.318 8.808-1.347 1.385.772 3.508 2.122 2.122z" fill="#3a291d"/><path d="M322.792 446.177a13.324 13.324 0 0 0 3.792-4.95 1.548 1.548 0 0 0-.539-2.052 1.51 1.51 0 0 0-2.052.538 11.409 11.409 0 0 1-3.323 4.343 1.51 1.51 0 0 0 0 2.121 1.536 1.536 0 0 0 2.122 0z" fill="#3a291d"/><path d="M326.575 441.289a37.823 37.823 0 0 1 8.3-3.615c1.845-.553 1.059-3.449-.8-2.893a41.209 41.209 0 0 0-9.02 3.918 1.5 1.5 0 0 0 1.514 2.59z" fill="#3a291d"/><path d="M335.2 437.309c3.052-1.255 6.033-1 9.266-.909 3.136.089 6.235-.385 9.369-.315 1.931.044 1.93-2.956 0-3-3.579-.08-7.115.4-10.7.261-3.06-.116-5.86-.11-8.73 1.07-1.761.724-.99 3.627.8 2.893z" fill="#3a291d"/><path d="M355.014 435.852c4.89-3.081 11.47-5.211 17.221-3.961 4.051.88 7.545 3.183 11.474 4.376 5.563 1.689 11.25 3.008 16.842 4.6 3.5 1 7 2.029 10.466 3.146 2.1.676 7.372 1.524 8.823 3.257.7.841.215 4.167.323 5.715a26.858 26.858 0 0 0 1.181 6.651c1.471 4.41 6.008 7.25 7.057 11.636.449 1.876 3.343 1.082 2.893-.8-.822-3.436-3.3-5.3-5.213-8.13-3.181-4.7-3.091-10.376-2.964-15.84a1.493 1.493 0 0 0-.743-1.3c-9.732-5.282-21.694-7.492-32.307-10.344-5.111-1.373-9.7-3.536-14.71-5.168-7.665-2.5-15.07-.716-21.857 3.562-1.63 1.027-.126 3.624 1.514 2.59zM303.8 445.227a7.6 7.6 0 0 1 2.4-5.042c1.4-1.339-.728-3.459-2.121-2.121a10.752 10.752 0 0 0-3.278 7.163c-.129 1.928 2.872 1.92 3 0zM387.114 401.4c-5.957-.094-11.018 1.215-16.988.234-8.395-1.38-15.529-.889-23.791.794-4.256.867-7.5 3.932-11.348 5.712-3.513 1.628-7.212.677-10.636 3.093-7.223 5.1-15.379 10.668-19.536 18.794-.878 1.716 1.71 3.236 2.59 1.515 3.89-7.6 11.737-13.1 18.579-17.8 3.771-2.587 7.793-.78 11.388-3.25a32.968 32.968 0 0 1 12.786-5.555 40.31 40.31 0 0 1 12.786-1.288c3.628.311 7.171 1.125 10.777 1.574 4.476.558 8.895-.9 13.393-.827a1.5 1.5 0 0 0 0-3z" fill="#3a291d"/><path d="M388.24 404.64c4.522.346 7.035 2.687 10.933 4.208 3.134 1.223 6.683 1.236 9.888 2.4 3.7 1.344 6.807 3.683 10.394 5.214 4.093 1.746 8.241 1.952 11.317 5.6 2.7 3.2 2.27 6.818 3.574 10.458.963 2.689 3.14 4.771 4.308 7.389 3.234 7.245 5.412 14.867 8.9 22.045.844 1.736 3.432.217 2.59-1.514a143.84 143.84 0 0 1-6.421-15.276c-1.121-3.194-2.007-6.5-3.819-9.4-1.573-2.511-2.5-3.456-3.208-6.655a30.142 30.142 0 0 0-1.033-4.706 15.5 15.5 0 0 0-4.8-6.492c-2.826-2.242-5.882-2.557-9.156-3.765-3.854-1.421-7.17-3.991-11.018-5.475-4.168-1.607-8.54-1.838-12.481-3.885a24.534 24.534 0 0 0-9.968-3.154c-1.926-.148-1.916 2.853 0 3z" fill="#3a291d"/><path d="M431.572 471.317c2.306-2.143 4.709-5.131 7.474-6.621 2.945-1.587 6.744-.877 9.849.032 1.857.543 2.65-2.351.8-2.893-3.369-.986-7.517-1.682-10.923-.492-3.572 1.247-6.613 5.338-9.32 7.853-1.417 1.317.708 3.435 2.122 2.121zM314.387 464.056a32.62 32.62 0 0 1 3.869 1.819c1.694.928 3.21-1.662 1.515-2.591a38.858 38.858 0 0 0-4.586-2.121 1.511 1.511 0 0 0-1.845 1.048 1.535 1.535 0 0 0 1.047 1.845zM301.31 444.655c-3.461-.888-7.221-1.489-10.573-2.713-3.391-1.238-4-3.985-5.571-7.2-1.22-2.506-2.045-5.18-3.272-7.673-1.454-2.954-3.721-5.322-5.536-8.039-1.365-2.044-1.907-4.824-3.738-6.521-1.643-1.524-3.738-1.33-5.576-2.424-2.977-1.772-3.262-7.969-3.728-11.241a65.114 65.114 0 0 0-1.983-10.091c-.565-1.84-3.462-1.055-2.893.8 2.04 6.64 1.052 15.576 4.936 21.541 1.089 1.673 2.289 1.617 3.948 2.392 4.143 1.935 5.191 5.427 7.762 8.888 3.9 5.248 6.09 11.056 8.975 16.887 1.191 2.409 1.676 4.133 4.117 5.127 3.817 1.555 8.348 2.142 12.334 3.165 1.871.48 2.669-2.412.8-2.893z" fill="#3a291d"/><path d="M286.208 486.328c-.749-3.689-1.514-7.5-3.389-10.81-1.07-1.891-2.6-3.344-3.763-5.16-1.509-2.353-1.79-4.6-2.308-7.244-.572-2.929-1.246-6.137-3.628-8.2-1.015-.879-1.959-.991-3.043-1.668-3.674-2.3-3.9-3.787-5.074-7.519-1.546-4.926-3.462-9.928-4.01-15.1-.483-4.554.245-9.141-.165-13.7-.4-4.493-2.328-8.308-2.037-12.9.305-4.8.807-9.582 1.391-14.352.234-1.912-2.768-1.895-3 0-.584 4.771-1.078 9.554-1.391 14.352-.31 4.76 1.569 8.248 2.037 12.9.458 4.552-.275 9.142.165 13.7.466 4.817 2.091 9.433 3.53 14.022.956 3.047 1.6 7.238 4.043 9.54a13.582 13.582 0 0 0 3.049 1.714 9.3 9.3 0 0 1 5.1 7.2c.772 3.931 1.44 6.944 3.839 10.2 3.234 4.385 4.69 8.521 5.765 13.816.384 1.891 3.276 1.091 2.893-.8zM474.233 453.267c-.589-1.191.174-.889-.515-.016a12.735 12.735 0 0 0-1.072 2.314c-1.089 2.293-2.229 4.562-3.369 6.83-1.791 3.564-3.328 7.832-5.656 11.082-1.63 2.274-5.727 5.826-8.076 8.576-2.9 3.391-6.229 6.865-8.5 10.734a1.5 1.5 0 0 0 2.59 1.514c2.6-4.422 6.51-8.431 9.882-12.262 2.457-2.79 5.658-5.1 7.383-8.381 2.362-4.486 4.635-9.026 6.876-13.574.856-1.738 4.093-6.218 3.049-8.331-.856-1.73-3.444-.212-2.591 1.514zM477.134 449.948l1.3-3.064.557-1.313c.152-.359.363-1.331.66-1.57l-1.818.234.089.059c1.616 1.066 3.121-1.531 1.514-2.591l-.088-.058a1.538 1.538 0 0 0-1.818.234c-.79.637-1.113 2.138-1.5 3.053l-1.485 3.5a1.553 1.553 0 0 0 .539 2.052 1.509 1.509 0 0 0 2.052-.538z" fill="#3a291d"/><path d="M481.058 440.983a22.19 22.19 0 0 1 4.449-4.608 1.51 1.51 0 0 0 0-2.121 1.536 1.536 0 0 0-2.122 0 24.783 24.783 0 0 0-4.917 5.215c-1.12 1.577 1.48 3.077 2.59 1.514zM485.412 427.966c-.163-4.006 1.29-7.386 2.135-11.2a39.894 39.894 0 0 0 .712-8.106 161.821 161.821 0 0 0-1.465-23.538c-.249-1.886-3.253-1.911-3 0a162.526 162.526 0 0 1 1.465 23.538c-.091 6.628-3.115 12.747-2.847 19.31.078 1.924 3.079 1.934 3 0zM450.87 462.636c3.91-3.2 6.418-8.943 8.809-13.256 2.353-4.244 5.178-8.724 6.644-13.385.581-1.846-2.314-2.636-2.893-.8-1.382 4.395-4.12 8.663-6.341 12.669-2.269 4.092-4.65 9.63-8.341 12.649-1.5 1.223.638 3.335 2.122 2.121z" fill="#3a291d"/><path d="M465.11 423.972c.113 3.817-1.487 7.428-1.159 11.263.164 1.909 3.165 1.926 3 0-.327-3.817 1.272-7.445 1.159-11.263-.057-1.926-3.057-1.934-3 0z" fill="#3a291d"/><path d="M470.428 425.824a19.737 19.737 0 0 0 4.047-6.886c1.377-3.6 3.006-6.994 4.53-10.524 3.159-7.316 5-15.455 7.128-23.113a1.5 1.5 0 0 0-2.892-.8c-1.865 6.695-3.629 13.526-5.949 20.08-1.145 3.235-2.883 6.183-4.179 9.349-1.406 3.435-2.161 6.986-4.806 9.77-1.33 1.4.788 3.525 2.121 2.122z" fill="#3a291d"/></g><g><path d="M487.425 356.259l-.2.211c-1.238-8.191-1.417-16.72-1.589-24.982-.043-2.029-.085-4.053-.142-6.07l-.032-1.1c-.327-11.584-.666-23.564-1.814-35.322l-.173-1.8c-.834-8.762-1.871-19.667-7.048-27.425-3.348-5.016-5.314-10.417-7.395-16.134-.509-1.4-1.024-2.813-1.564-4.235-6-15.815-13.252-26.553-22.81-33.794l-1.021-.774-1.128.608c-2.716 1.461-6.509 3.023-9.009 3.023-1.768 0-1.879-.732-1.968-1.32l-.541-3.567-2.733 2.35-.886.771c-2 1.735-4.259 3.7-6.508 3.7-.093 0-.187 0-.281-.011-1.708-.121-2-.92-2.1-1.182l-.99-2.687-2.177 1.856c-1.773 1.511-3.366 2.31-4.607 2.31a2.446 2.446 0 0 1-.956-.186l-1.569-.656-.9 1.449c-1.265 2.045-3.433 3.646-4.935 3.646a1.792 1.792 0 0 1-.75-.155l-2.082-.942-.654 2.193a8.535 8.535 0 0 1-.493 1.338 3.658 3.658 0 0 1-3.567 2.178 8.139 8.139 0 0 1-4.43-1.508l-1.619-1.128-1.146 1.607a2.512 2.512 0 0 1-1.88 1.086 5.332 5.332 0 0 1-3.1-1.624l-1.715-1.494-1.258 1.9a.717.717 0 0 1-.56.179 1.655 1.655 0 0 1-.4-.05 4.458 4.458 0 0 1-2.073-1.469l-1.37-1.5-1.472 1.393a7.245 7.245 0 0 1-3.28 1.284 17.2 17.2 0 0 1-2.679.206 23.061 23.061 0 0 1-7.2-1.239l-1.578-.52-.8 1.458a1.2 1.2 0 0 1-1 .568c-.067 0-.134.007-.2.007a4.674 4.674 0 0 1-2.3-.71l-1.3-.773-1.093 1.047a7.472 7.472 0 0 1-3.615.71 5.193 5.193 0 0 1-.665-.033 22.018 22.018 0 0 1-6.573-2.476l-.95-.478-.926.52a10.588 10.588 0 0 1-5.171 1.2 16.458 16.458 0 0 1-9.319-2.968l-.578-.426-.716.04c-1.2.067-2.411.1-3.608.1a67.149 67.149 0 0 1-11.618-1.032l-1.4-.248-.689 1.249c-.131.239-.44.8-1.962.8-2.484 0-6.606-1.553-11.311-4.261l-1.256-.723-1.076.972a6.144 6.144 0 0 1-4.318 1.472 14.964 14.964 0 0 1-3.976-.62l-2.071-.58-.425 2.112a15.85 15.85 0 0 1-1.561 4.292l-.966 1.787 1.517.792-.283.839.579.58c-.244 2-.39 4.057-.444 6.276l-.025.993.278.222c-3.4 3.126-6.623 6.5-9.746 9.771l-2.541 2.658 2.758 1.095a15.152 15.152 0 0 1 4.127 2.476l.075.2.1.1a32.993 32.993 0 0 1-7.273 14.826l-.424.509-.03.552c-3.285 6.148-4.234 13.564-5.07 20.11l-.064.509c-1.113 8.677-1.679 17.362-2.209 26.237-.234 3.917-.405 7.929-.571 11.809-.489 11.444-1 23.263-3.15 34.515l-.086-.106-.64.125c-.184-12.376-2.128-24.905-4.009-37.029-.795-5.123-1.618-10.422-2.283-15.58-1.351-10.463-2.421-19.189-2.884-28.278-.029-.585-.067-1.191-.1-1.813a44.357 44.357 0 0 1 .134-9.8l.4-2.3-1.854-.035a11.715 11.715 0 0 1-1-3.906l-.491-6.29-3.406 5.743c-2.421-7.388-1.333-14.529 3.24-21.219l.479-.7-.171-.832c-1.334-6.5 1.494-14.031 4.32-18.508a18.15 18.15 0 0 1 15.96-8.942c.254 0 .51 0 .766.014l5.544.192-4.15-3.687a53.227 53.227 0 0 1-8.325-9.322 47.265 47.265 0 0 1-8.2-20.183c-.476-3.367-.8-7.608.942-10.535l.569-.956-.512-.988c-4.139-8-5.313-14.316-3.488-18.775 1.348-3.293 4.323-5.649 9.093-7.2l1.265-.411.108-1.327a15.189 15.189 0 0 1 .921-4.217c1.879-4.872 5.9-5.894 8.944-5.894a17.107 17.107 0 0 1 6.754 1.5l2.735 1.2.059-2.99a57.56 57.56 0 0 1 1.788-13.424c2.168-8.3 6.721-14.817 12.821-18.344a28.483 28.483 0 0 1 14.442-3.54 49.066 49.066 0 0 1 9.415.99 36.629 36.629 0 0 0-6.15 2.3l1.069 3.793a17.088 17.088 0 0 1 1.758-.093 12.809 12.809 0 0 1 4.013.6l2.257.744.357-2.455a21.01 21.01 0 0 1 .729-2.727l.419-1.254.571-1.185a21.417 21.417 0 0 1 14.07-11.635 9.564 9.564 0 0 0-2.127 5.051l-.841 5.7 4.187-3.958c5.068-4.791 9.548-7.12 13.7-7.12.318 0 .638.013.96.042 4.1.361 7.181 2.68 8.229 6.054a6.036 6.036 0 0 0-2.749-.575 17.4 17.4 0 0 0-6.992 1.855c-.265.138-.512.285-.757.434l-5.238 3.13 5.856.68a13.941 13.941 0 0 1 8.081 3.863c3.879 3.657 6.979 8.792 9.475 15.7l1.15 3.178 2.227-2.539a8.7 8.7 0 0 1 6.492-2.8 7.266 7.266 0 0 1 6.523 3.459l1.927 3.417 1.627-3.57c.24-.525.492-1.047.765-1.561 1.973-3.692 5.856-8.572 10.3-10.164.191-.068.475-.17.668-.224.032.034.068.076.111.13a5.37 5.37 0 0 1 .067 1.366c-.009.365-.015.715 0 1.032.118 2.144.263 4.094.444 5.963l.668 6.9 3.1-6.2a29.583 29.583 0 0 1 2.417-4.014l.961 3.448 2.4-3.846a16.892 16.892 0 0 1 2.184-2.789 42.8 42.8 0 0 0 1.589 19.2l3.907-.445c.225-3.722 1.746-7.274 3.462-10.628.792 7.522 4.078 13.953 6.924 18.8l3.626 6.175.091-7.163a14.99 14.99 0 0 1 .338-2.951c.617 10.914 9.3 17.988 17.045 24.3a85.411 85.411 0 0 1 8.786 7.824 28.5 28.5 0 0 1 6.159 10.247l3.883-.5c.024-.34.04-.682.05-1.029l.027-.739a15.158 15.158 0 0 0-.515-5.68l.389-.259c6.646 4.118 7.2 17.252 5.481 28.282a45.078 45.078 0 0 1-3.354 11.568l-2.376 5.26 5.115-2.661a41.435 41.435 0 0 1 13.66-3.94 21.154 21.154 0 0 1 2.391-.14c7.313 0 12.292 4.2 13.817 11.573a10.323 10.323 0 0 0-6.437-2.12 15 15 0 0 0-3.065.339l-6.2 1.305 5.828 2.492a32.619 32.619 0 0 1 11.4 8.1 26.834 26.834 0 0 0-6.791-.886l-3.353-.031 1.569 2.967c7.743 14.633 8.3 33.149 7.821 49.333-.9 30.4-6.377 60.114-12.431 90.4z" fill="#72391d"/><path d="M486.84 353.044c-.438-3.715-.722-7.808-.892-12.88l-.068-2 1.638 1.153a12.2 12.2 0 0 0 2.805 1.6l.809.286-.16.845q-1.062 5.551-2.162 11.082zM254.327 348.633c-.487-8.142-1.636-16.4-2.806-24.117l-.178-1.166 1.178.016a28.19 28.19 0 0 1 2.8-.911c.587-.168 1.175-.336 1.752-.535l1.384-.477-.062 1.465a257.958 257.958 0 0 1-2.085 25.809zM490.1 339.739a10.864 10.864 0 0 1-1.029-.64l-2.606-1.734-.532-.27-.089-.632q-.046-1.9-.083-3.793c-.041-2-.082-3.985-.14-5.964l-.152-5.407 1.727 1.537a34.656 34.656 0 0 1 5.457 6.17.609.609 0 0 0 .142.14l.494.369-.108.608q-.8 4.464-1.637 8.916l-.25 1.326zM492.1 326.635a36.449 36.449 0 0 0-6.3-6.211l-.374-.289-.015-.473q-.137-4.726-.319-9.455l-.091-2.284 1.736 1.484a39.5 39.5 0 0 1 8.081 9.609l.2.318-.06.369q-.531 3.243-1.092 6.481l-.38 2.195zM251.073 321.589l-.582-3.77 1.016-.131a.636.636 0 0 0 .176-.043c1.244-.544 2.551-1.194 4.242-2.109l.41-.222a54.4 54.4 0 0 0 .874-.476l1.557-.867-.265 6.437-.757.219a24.537 24.537 0 0 1-2.7.875 21.82 21.82 0 0 0-2.536.824l-1.177.49zM247.8 298.622c-.134-1.059-.261-2.119-.388-3.179l-.219-1.83.851-.216a.462.462 0 0 0 .22-.13c3.052-3.021 6.581-6.181 11.107-9.945l1.926-1.6-.3 2.49a239.971 239.971 0 0 0-.7 6.672l-.076.816-.813.087a.442.442 0 0 0-.207.08 69.858 69.858 0 0 0-6.772 4.965c-.31.258-.665.534-1.044.827-.613.476-1.308 1.015-1.918 1.576l-1.422 1.306z" fill="#4c2714"/><path d="M496.693 294.1c-2.535-4.528-6.419-8.538-10.175-12.415-1.335-1.378-2.6-2.68-3.794-4l-.3-.241-.137-.441a59.225 59.225 0 0 0-2.677-10.819l-.955-2.621 2.4 1.416q.944.558 1.888 1.1c6.4 3.723 13.019 7.573 16.04 15.5a.548.548 0 0 0 .2.265l.477.328-.047.577a384.194 384.194 0 0 1-1.055 10.966l-.343 3.094z" fill="#bcafaa"/><path d="M498.164 277.725c-3.461-5.744-8.959-9.021-14.779-12.492-1.624-.968-3.3-1.969-4.969-3.041a.506.506 0 0 0-.168-.069l-.439-.1-.382-.731c-.61-1.121-1.311-2.177-1.99-3.2a31.341 31.341 0 0 1-2.829-4.9l-1.292-2.986 2.744 1.744c8.174 5.2 17.915 7.038 25.488 8.059l.051 1 .062-1 1.035-.023-.014 1.037c-.031 2.171-.09 4.32-.164 6.434-.1 3.039-.27 6.25-.5 9.817l-.209 3.178zM245.183 272.411c-.391-4.577-.545-9.308.966-12.906l.382-.91.913.371a.382.382 0 0 0 .146.03.517.517 0 0 0 .244-.072c7.824-4.246 14.013-10.328 19.68-16.195l.42-.434.578.169a14.421 14.421 0 0 1 5.134 2.688l.472.388-.129.6c-2.733 12.7-14.335 24.126-27.59 27.164l-1.119.257zM496.259 231.172c-6.914-4.948-15.584-5.876-23.968-6.774-3.8-.407-7.737-.828-11.492-1.615a.573.573 0 0 0-.121-.013.5.5 0 0 0-.143.02l-.729.206-.394-.648a72.828 72.828 0 0 0-1.747-2.732l-1.579-2.362 2.707.851a19.73 19.73 0 0 0 5.924.772 64.385 64.385 0 0 0 7.285-.55l.15-.017c2.929-.336 5.927-.978 8.826-1.6a84.543 84.543 0 0 1 10.078-1.738l.64-.057.317.559a59.543 59.543 0 0 1 5.793 14.636l.678 2.656zM242.271 229.813c-.163-6.087 2.574-11.843 3.758-14.035 3.67-6.792 9.665-10.532 16.884-10.532a23.085 23.085 0 0 1 4.631.487.587.587 0 0 0 .13.014.507.507 0 0 0 .1-.01l.427-.084.353.255A52.566 52.566 0 0 0 277 210.93c.927.436 1.828.827 2.68 1.162l.749.295-.129.8c-.044.276-.1.555-.164.838l-.184.776-1.053-.007c-12.4 0-26.749 6.439-34.885 15.658l-1.678 1.9zM394.2 219.6a5.838 5.838 0 0 1-4.357-1.959l-.4-.429.178-.562c.236-.741.434-1.507.619-2.218.159-.614.309-1.189.461-1.679a75.221 75.221 0 0 0 2.587-11.749 106.374 106.374 0 0 0 .387-25.145l1.951-.382c.98 3.31 1.749 6.263 2.35 9.029a85.067 85.067 0 0 1 2.055 17.106 74.064 74.064 0 0 1-.461 9.32c-.012.118-.029.307-.049.544a19.9 19.9 0 0 1-.583 3.87 4.066 4.066 0 0 1-3.142 4.058l-.1.027a6.992 6.992 0 0 1-1.496.169z" fill="#4c2714"/><path d="M385.41 219.242c-1.415 0-2.7-1.19-3.994-2.515a.607.607 0 0 0-.11-.088l-.431-.273-.032-.509c-1.644-25.9-3.506-55.253-8.561-83.627l-.395-2.23a171.155 171.155 0 0 0-4.507-20.484l-.123-.4.225-.417.02-.028a8.574 8.574 0 0 1 7.625-4.541 7.177 7.177 0 0 1 7.4 6.125.456.456 0 0 0 .064.182l.281.393-.134.464c-3.8 13.251.9 28.934 5.6 42.594.211.612.807 2.316.807 2.316l.007.147a.609.609 0 0 0 .022.13 122.4 122.4 0 0 1 3.919 35.615 81.609 81.609 0 0 1-2.41 17.063c-.125.486-.25 1.023-.381 1.589-.536 2.3-1.2 5.172-2.455 7a2.944 2.944 0 0 1-2.437 1.494zM357.1 218.7a4.584 4.584 0 0 1-1.159-.214 6.1 6.1 0 0 1-1.8-.962l-.223-.164-.107-.255a.626.626 0 0 0-.09-.163c-21.328-26.615-35-53.7-40.644-80.507-2.293-10.9-2.9-19.615-1.9-27.44.42-3.313 1.147-7.482 3.062-10.34l1.823.651a39.008 39.008 0 0 0 .479 8.373l.166 1.308a197.252 197.252 0 0 0 4.646 23.721 294.829 294.829 0 0 0 20.931 58.558c5.257 10.676 10.346 18.728 16.015 25.339l.352.41-.15.52a.537.537 0 0 0-.028.154h-1l.331.905a1.572 1.572 0 0 1-.609.113zM463.99 217.845c-3.372 0-5.769-.585-7.544-1.842l.743-1.8a22.553 22.553 0 0 0 3.746.311c4.311 0 9-1.2 14.331-3.669 1.252-.579 2.677-1.37 4.186-2.207 1.958-1.088 4.178-2.32 6.4-3.285l.464-.2.436.254a.654.654 0 0 0 .136.062 32.862 32.862 0 0 1 12 6.859l2.418 2.168-3.216-.432a28.449 28.449 0 0 0-3.765-.243q-.793 0-1.589.038l-.354.017-.285-.211a.358.358 0 0 0-.22-.068.681.681 0 0 0-.422.164l-.239.2-.311.029a72.462 72.462 0 0 0-8.281 1.375l-.208.045a91.528 91.528 0 0 1-13.7 2.211l-.968.063c-1.148.074-2.448.161-3.758.161zM304.908 215.228c-3.387 0-12.088-4.576-12.171-4.622l-.248-.138-.139-.248a.519.519 0 0 0-.1-.138c-15.185-14.182-50.113-49.075-46.57-66.882.835-4.2 3.677-7.23 8.449-9.012l1.27-.474.075 1.355a37.559 37.559 0 0 0 1.526 8.243c2.955 10.288 8.769 19.7 13.5 26.759 11.434 17.035 25.307 31.867 36.115 42.886l.369.376-.1.515c-.063.379-.379 1.38-1.976 1.38z" fill="#4c2714"/><path d="M320.242 214.455a65.565 65.565 0 0 1-11.516-1.016l-.35-.062-.254-.3-.05-.065c-19.578-19.885-38-39.739-47.811-63.447-3.414-8.252-7.7-22.729 1.99-26.967a10.053 10.053 0 0 1 4.054-.812 17.841 17.841 0 0 1 8.014 2.262l.59.292.018.6c.559 19.264 9.023 37.984 16.024 50.3a150.059 150.059 0 0 0 30.362 37.469l1.926 1.729zM420.491 210.344a1.964 1.964 0 0 1-1.508-.616 2.662 2.662 0 0 1-.545-2.1.456.456 0 0 0-.016-.16l-.128-.512.35-.4a34.361 34.361 0 0 0 3.256-4.313c5.268-8.4 8.033-19.749 7.786-31.953-.264-13.026-5.025-24.594-9.145-33.216l-.9-1.888c-1.967-4.1-4-8.342-5.691-12.655l-.43-1.1 1.154-.244a.661.661 0 0 0 .415-.26.441.441 0 0 0 .04-.364c-1.114-4.807.338-8.972 1.727-12.063l1.276-2.837.613 3.05c1.452 7.218 5.1 13.688 8.829 19.6l.141.222c6 9.528 11.673 18.528 14.23 29.591 2.733 11.838 1.713 23.413-2.95 33.476a43.322 43.322 0 0 1-8.778 12.587c-.066.068-6.57 6.155-9.726 6.155z" fill="#4c2714"/><path d="M434.41 208.462a2.783 2.783 0 0 1-2.188-.838 2.854 2.854 0 0 1-.583-2.323.347.347 0 0 0-.02-.2l-.276-.614.464-.487a46.758 46.758 0 0 0 12.094-25.41c1.722-11.856-.815-25.047-7.144-37.142-1.052-2.011-2.291-4.128-4.017-6.865l1.623-1.159c3 3.754 7.066 7.1 11 10.343 7.161 5.906 14.568 12.013 16.74 21.207 2.133 9.026-.388 19.806-6.744 28.837a40.144 40.144 0 0 1-11.628 10.974l-.064.039-.068.028a.372.372 0 0 0-.089.053l-.069.06-.079.047c-.977.579-5.978 3.45-8.952 3.45zM315.38 93.025a13.826 13.826 0 0 0-4.323-.647 18.213 18.213 0 0 0-1.861.1l-.535-1.9a35.72 35.72 0 0 1 7.638-2.654l1.729-.39-.563 1.683a22.1 22.1 0 0 0-.776 2.927l-.181 1.251z" fill="#4c2714"/><path d="M292.837 209.35c-9.591-8.955-68.647-64.475-37.576-74.538 1.829-.592 1.046-3.49-.8-2.893-36.374 11.78 25.276 69.3 36.253 79.553 1.41 1.316 3.536-.8 2.121-2.122z" fill="#3a291d"/><path d="M308.735 212.362c-18.1-18.386-37.619-38.941-47.642-63.174-2.7-6.53-7.861-21.586 1.466-25.668 3.644-1.595 7.927-.327 11.248 1.442 1.7.908 3.22-1.681 1.514-2.59-7.013-3.738-16.565-3.747-19.857 4.789-2 5.194-1.011 11.243.478 16.427 2.789 9.711 8.043 18.71 13.636 27.042 10.676 15.905 23.626 30.231 37.036 43.853 1.356 1.378 3.477-.744 2.121-2.121z" fill="#3a291d"/><path d="M325.488 213.8c-20.529-17.573-36.958-40.733-44.607-66.819-4.78-16.3-7.836-40.667 6.517-53.459 7.972-7.105 19.229-7.032 29.229-4.735V85.9c-24 4.862-35.428 29.259-26.265 50.743.755 1.77 3.221.243 2.472-1.514A33.68 33.68 0 0 1 317.01 88.79a1.512 1.512 0 0 0-.029-2.893c-9.11-2.127-19.158-2.539-27.52 2.3-7.239 4.186-11.7 11.636-13.771 19.57-5.937 22.736 3.145 48.345 14.306 67.973a152.043 152.043 0 0 0 33.372 40.188c1.46 1.249 3.59-.863 2.12-2.121z" fill="#3a291d"/><path d="M341.805 214.921c-9.458-10.049-17.224-21.86-24.66-33.435-7.9-12.3-15.6-25.009-21.308-38.5-.75-1.772-3.334-.245-2.59 1.514 5.89 13.925 13.883 27.032 22.08 39.7 7.355 11.366 15.048 22.955 24.356 32.844 1.326 1.409 3.445-.715 2.122-2.121zM301.805 96.86c4.446-2.534 11.218-3.78 15.559-.5l.359-2.742c-5.018 1.268-7.067 7.106-8.025 11.6-1.9 8.908-1.024 18.369.5 27.259 5.453 31.766 22.162 61.092 42.087 85.957 1.207 1.506 3.318-.629 2.122-2.122-18.724-23.365-34.227-50.543-40.445-80.087-1.853-8.8-3.033-18.121-1.891-27.107.511-4.021 1.652-11.4 6.447-12.611a1.52 1.52 0 0 0 .358-2.741c-5.186-3.919-13.286-2.522-18.587.5a1.5 1.5 0 0 0 1.514 2.59z" fill="#3a291d"/><path d="M360.057 215.728c-16.163-18.492-25.133-43.806-32.233-66.925a276.257 276.257 0 0 1-8.155-32.869c-.987-5.575-3.221-13.98-.99-19.539.719-1.792-2.182-2.57-2.893-.8-1.621 4.039-.68 9.355-.168 13.513a198.743 198.743 0 0 0 4.669 23.841 295.078 295.078 0 0 0 21 58.758c4.566 9.273 9.821 18.332 16.646 26.14 1.273 1.456 3.387-.673 2.121-2.121z" fill="#3a291d"/><path d="M376.354 215.583a310.824 310.824 0 0 0-15.388-44.783c-5.728-13.6-12.179-27-16.678-41.075-3.87-12.107-10.862-37.522 4.376-45.435 1.864-.968 6.909-2.665 8.559-.778.8.916 2.724.233 2.561-1.061-.676-5.364-5.051-8.8-10.353-9.264-7.451-.656-14.136 5.3-18.89 10.3l2.561 1.061c-.155-2.926.07-6.927 2.848-8.675a1.507 1.507 0 0 0-1.156-2.741A23.546 23.546 0 0 0 315.6 92.017c-.352 1.887 2.539 2.7 2.893.8a20.655 20.655 0 0 1 17.1-16.784l-1.155-2.742c-3.747 2.357-4.553 7.131-4.334 11.265a1.518 1.518 0 0 0 2.561 1.06c3.4-3.576 7.32-7.272 12.122-8.828 4.6-1.492 11.282-.017 12 5.669l2.561-1.061c-1.893-2.163-6.01-1.727-8.452-1.129a17.544 17.544 0 0 0-11.031 8.851c-4.087 7.537-3.731 16.833-2.463 25.037 2.391 15.459 8.836 29.96 14.99 44.219 8.185 18.964 16.022 37.927 21.072 58.008.47 1.871 3.365 1.079 2.893-.8z" fill="#3a291d"/><path d="M344.069 87.745c15.908-2.44 21.284 22.389 23.821 33.316 7.29 31.4 8.929 64.255 10.96 96.316.122 1.917 3.122 1.931 3 0-1.8-28.48-3.663-57.191-8.675-85.323-2.466-13.838-5.272-32.661-16.119-42.886a15.889 15.889 0 0 0-13.784-4.316c-1.9.292-1.095 3.183.8 2.893z" fill="#3a291d"/><path d="M368.276 109.167c2.8-5.6 11.994-5.568 13.169 1.251.327 1.9 3.219 1.094 2.893-.8-1.61-9.347-14.746-9.788-18.652-1.968-.861 1.722 1.726 3.243 2.59 1.514zM400.842 108.085a25.721 25.721 0 0 1 4.148-7.534l-2.507-1.46a30.564 30.564 0 0 0 .188 10.723c.322 1.67 2.985 1.274 2.946-.4a14.958 14.958 0 0 1 5.417-12.257l-2.507-1.46c-4.317 21.214 10.558 38.223 16.361 57.419a64.282 64.282 0 0 1 .951 33.547 50.055 50.055 0 0 1-5.39 13.954c-.966 1.617-7.761 11.2-10.588 8.845-1.475-1.226-3.608.885-2.122 2.121 5.159 4.291 12.573-5.071 14.916-8.807 5.92-9.44 8.162-21.5 7.939-32.506-.243-12.011-4.119-22.9-9.242-33.627-6.007-12.573-12.852-25.783-9.932-40.143a1.513 1.513 0 0 0-2.507-1.46 17.922 17.922 0 0 0-6.3 14.379l2.946-.4a25.592 25.592 0 0 1-.187-9.127c.2-1.274-1.463-2.786-2.507-1.459a30.751 30.751 0 0 0-4.919 8.858c-.652 1.821 2.246 2.605 2.892.8z" fill="#3a291d"/><path d="M431.666 130.578a13.846 13.846 0 0 1-.651-12.783l-2.8-.757c-2.416 23.167 28.1 28.216 32.813 48.171 2.256 9.546-1.083 20.207-6.589 28.03a38.982 38.982 0 0 1-11.46 10.78c-1.342.821-11.018 6.367-10.441 1.4.222-1.914-2.78-1.9-3 0-1.115 9.6 12.237 2.941 15.57.816a43.016 43.016 0 0 0 18.19-24.854c2.959-11.019.933-21.664-6.866-30.108-9.449-10.232-26.935-17.756-25.217-34.233.151-1.444-2.207-2.1-2.8-.757a17.077 17.077 0 0 0 .652 15.811c.933 1.69 3.525.179 2.59-1.514zM268.048 203.82c-9.338-1.924-17.741 1.167-22.9 9.334-3.6 5.695-6.137 13.98-4.434 20.713.473 1.871 3.367 1.078 2.893-.8-1.366-5.4.649-12.08 3.207-16.816 4.246-7.858 11.656-11.349 20.433-9.541 1.884.388 2.69-2.5.8-2.893z" fill="#3a291d"/><path d="M279.171 213.79c-21.071-.213-50.346 18.194-41.973 42.689.62 1.817 3.519 1.037 2.892-.8-7.725-22.6 19.939-39.085 39.081-38.892a1.5 1.5 0 0 0 0-3z" fill="#3a291d"/><path d="M279.323 218.7c-10.688 2.062-20.885 9.685-28.323 17.32-6.2 6.361-13.227 16-8.762 25.142.847 1.734 3.435.215 2.59-1.514-4.276-8.76 4.994-18.606 10.887-24.02 6.7-6.155 15.3-12.278 24.405-14.035 1.894-.365 1.092-3.257-.8-2.893z" fill="#3a291d"/><path d="M244.727 257.637c-2.444 4.694-1.684 11.282-1.426 16.342.484 9.512 1.678 18.992 2.9 28.433 2.258 17.488 6.109 35.329 6.283 53.005a1.5 1.5 0 0 0 3 0c-.166-16.879-3.785-33.953-5.975-50.646-1.222-9.306-2.407-18.637-3.038-28-.345-5.124-1.648-12.817.849-17.615.89-1.711-1.7-3.229-2.59-1.514z" fill="#3a291d"/><path d="M265.473 260.922c-2.922 5.426-3.971 11.79-4.858 17.816-1.263 8.577-1.907 17.238-2.458 25.886-1.076 16.857-.76 34.339-4.133 50.948-.383 1.885 2.508 2.691 2.893.8 3.171-15.615 3.054-31.98 4-47.83.519-8.712 1.086-17.441 2.195-26.1.851-6.647 1.727-14.012 4.952-20 .916-1.7-1.673-3.216-2.59-1.514zM442.826 206.712c11.254 8.241 17.916 20.605 22.77 33.392 2.766 7.285 4.846 14.3 9.165 20.77 5.242 7.857 6.007 19.221 6.895 28.312 1.176 12.057 1.493 24.186 1.836 36.289.308 10.823.184 21.885 1.96 32.6.315 1.9 3.207 1.094 2.893-.8-1.665-10.041-1.531-20.451-1.819-30.6-.36-12.7-.662-25.427-1.927-38.075-.921-9.2-1.881-19.515-6.384-27.789-1.6-2.949-3.68-5.239-4.956-8.415-1.87-4.656-3.361-9.461-5.172-14.141-5.114-13.218-12.118-25.621-23.747-34.135-1.56-1.142-3.058 1.46-1.514 2.59z" fill="#3a291d"/><path d="M464.154 155.349c7.654 4.342 6.446 20.021 5.371 27.11-1.671 11.009-7.245 23.857-19.684 25.4-1.891.234-1.915 3.237 0 3 13.915-1.726 20.607-14.99 22.577-27.6 1.328-8.506 2.334-25.344-6.75-30.5a1.5 1.5 0 0 0-1.514 2.59zM490.411 214.82c9.289 15.409 9.62 35.167 9.015 52.6-1.042 30.086-6.58 60-12.474 89.446-.377 1.885 2.514 2.692 2.893.8 6.024-30.1 11.713-60.738 12.622-91.5.519-17.581-.116-37.346-9.466-52.857a1.5 1.5 0 0 0-2.59 1.514z" fill="#3a291d"/><path d="M466.061 201.029c3.465-3.639 10.394-5.554 15.106-6.491 9.458-1.882 16.349 1.878 17.828 11.784l2.507-1.46c-5.616-5.582-12.634-3.027-18.89.031-9.7 4.74-19.719 10.916-30.561 5.633-1.729-.842-3.252 1.744-1.515 2.591 8.455 4.119 16.826 2.444 25.058-1.366 6.579-3.044 17.108-11.4 23.787-4.768a1.513 1.513 0 0 0 2.507-1.459c-1.5-10.073-8.528-15.489-18.626-14.337-6.055.691-14.919 3.1-19.322 7.721-1.331 1.4.786 3.523 2.121 2.121z" fill="#3a291d"/><path d="M486.487 206.418a31.973 31.973 0 0 1 15.206 10.362l1.459-2.507c-6.919-2.453-13.828-1.387-20.833.113a91.544 91.544 0 0 1-13.759 2.236c-4.038.241-10.142.981-12.97-2.714-1.158-1.512-3.765-.02-2.591 1.514 4.327 5.651 12.9 4.6 19.175 3.882 10.082-1.156 20.116-5.707 30.181-2.138 1.548.549 2.319-1.466 1.459-2.507a34.719 34.719 0 0 0-16.53-11.134c-1.843-.59-2.632 2.305-.8 2.893zM460.114 224.7c12.492 2.619 27.273.649 37.274 10.043 1.406 1.321 3.532-.8 2.121-2.121-10.55-9.911-25.435-8.056-38.6-10.815-1.883-.4-2.689 2.5-.8 2.893zM465.215 235.226c6.05 1.894 12.336 2.23 18.509 3.527a33.032 33.032 0 0 1 7.978 2.606 19.691 19.691 0 0 1 4.466 2.959c.843.766 2.152 3.6 2.451 2.489a1.5 1.5 0 0 0 2.892.8c1.117-4.133-7.157-8.4-9.98-9.6-8.1-3.456-17.176-3.059-25.519-5.671-1.846-.578-2.636 2.317-.8 2.893zM470.607 250.83c8.352 6.392 18.468 8.787 28.715 10.168 1.888.255 2.7-2.636.8-2.893-10-1.348-19.835-3.618-28-9.865-1.532-1.173-3.028 1.431-1.514 2.59zM477.351 263.941c8.009 5.156 16.967 8.445 20.608 18 .68 1.786 3.581 1.011 2.892-.8-4.009-10.524-13.089-14.068-21.986-19.8-1.628-1.048-3.134 1.547-1.514 2.59zM481.251 279.136c5.415 5.963 13.182 12.33 15.477 20.294a1.5 1.5 0 0 0 2.893-.8c-2.466-8.556-10.456-15.239-16.248-21.618-1.3-1.433-3.418.694-2.122 2.121zM484.22 308.731a38.055 38.055 0 0 1 9.78 11.008c1.006 1.644 3.6.139 2.591-1.515a41.937 41.937 0 0 0-10.859-12.083c-1.543-1.161-3.04 1.442-1.515 2.59zM484.1 321.674a33.343 33.343 0 0 1 7.64 7.9c1.1 1.574 3.7.076 2.591-1.514a37.755 37.755 0 0 0-8.717-8.98c-1.553-1.149-3.051 1.453-1.514 2.59zM485.407 339.122c1.863 1.238 3.794 2.97 6.127 3.059 1.931.073 1.927-2.927 0-3a4.759 4.759 0 0 1-2.268-1.092q-1.173-.777-2.344-1.557c-1.613-1.072-3.117 1.526-1.515 2.59zM278.98 228.247c-10.722 9.721-19.337 21.946-32.276 28.966-1.7.921-.185 3.512 1.514 2.59 13.179-7.15 21.965-19.535 32.883-29.435 1.434-1.3-.693-3.416-2.121-2.121zM273.1 245.022c-2.432 13.451-14.838 25.065-28.279 27.566-1.9.352-1.093 3.244.8 2.892C260 272.806 273.4 260.21 276 245.82c.342-1.888-2.549-2.7-2.892-.8zM260.353 279.855c-4.651 3.793-9.337 7.778-13.6 12a1.5 1.5 0 0 0 2.121 2.122c4.267-4.223 8.952-8.209 13.6-12 1.5-1.221-.636-3.332-2.121-2.121zM258.56 291.025a70.478 70.478 0 0 0-6.869 5.036c-1.658 1.381-4.665 3.285-5.082 5.531-.35 1.888 2.541 2.7 2.893.8.147-.791 1.292-1.53 1.864-2.059q1.345-1.244 2.76-2.408a64.12 64.12 0 0 1 5.948-4.308c1.616-1.045.113-3.643-1.514-2.59zM251.994 318.56c1.47-.643 2.9-1.381 4.315-2.144a16.128 16.128 0 0 0 3.387-2.137c1.413-1.321-.711-3.439-2.122-2.122a16.827 16.827 0 0 1-3.105 1.843c-1.307.7-2.631 1.376-3.99 1.97-1.764.772-.239 3.358 1.515 2.59zM252.834 324.3c1.723-.719 3.575-1.007 5.3-1.726a1.552 1.552 0 0 0 1.047-1.845 1.508 1.508 0 0 0-1.845-1.048c-1.724.719-3.575 1.007-5.3 1.726a1.552 1.552 0 0 0-1.047 1.846 1.508 1.508 0 0 0 1.845 1.047zM388.108 156.731a121.6 121.6 0 0 1 3.892 35.32 80.358 80.358 0 0 1-2.38 16.853c-.627 2.438-1.254 6.175-2.692 8.275-1.423 2.079-2.984.791-4.885-1.152-1.352-1.382-3.473.74-2.121 2.121 2.363 2.416 5.644 5.151 8.844 2.1 1.573-1.5 2.156-5.129 2.8-7.195a75.732 75.732 0 0 0 2.622-11.907c2.089-14.782.634-30.8-3.18-45.213a1.5 1.5 0 0 0-2.893.8zM240.07 257.553q1.589-2.75 3.3-5.421c1.045-1.631-1.551-3.137-2.59-1.514q-1.713 2.672-3.3 5.421a1.5 1.5 0 0 0 2.59 1.514z" fill="#3a291d"/><path d="M278.437 221.816a62.667 62.667 0 0 0-.5 7.113 1.5 1.5 0 0 0 3 0 62.667 62.667 0 0 1 .5-7.113c.243-1.91-2.759-1.892-3 0zM267.969 243.368a13.375 13.375 0 0 1 5.125 2.69c1.463 1.244 3.6-.868 2.122-2.121a16.878 16.878 0 0 0-6.45-3.462 1.5 1.5 0 0 0-.8 2.893z" fill="#3a291d"/><path d="M279.568 220.1a16.83 16.83 0 0 0 2.768-8.1c.07-1.931-2.93-1.928-3 0a14 14 0 0 1-2.359 6.584c-1.1 1.592 1.5 3.094 2.591 1.514z" fill="#3a291d"/><path d="M290.627 210.117c-4.03 4.344-13.115-.9-17.129-3.292a51.637 51.637 0 0 1-17.198-16.648 47.44 47.44 0 0 1-6.654-16.526c-.618-3.3-1.519-8.922.837-11.826 1.206-1.486-.9-3.622-2.121-2.121-2.817 3.471-2.5 8.717-1.914 12.871A49.463 49.463 0 0 0 255 193.623a54.931 54.931 0 0 0 21.49 18.212c4.737 2.229 12.063 4.93 16.262.4 1.311-1.414-.805-3.541-2.121-2.121z" fill="#3a291d"/><path d="M291.5 212.258c3.509 2.088 16.287 9.193 17.3 1.413.25-1.908-2.753-1.89-3 0-.305 2.333-11.778-3.4-12.789-4a1.5 1.5 0 0 0-1.514 2.591z" fill="#3a291d"/><path d="M307.4 215.243a68.226 68.226 0 0 0 16.623 1.106c1.92-.109 1.932-3.11 0-3a64.884 64.884 0 0 1-15.825-1c-1.887-.356-2.7 2.535-.8 2.893z" fill="#3a291d"/><path d="M323.067 215.644c4.609 4.059 13.566 5.755 18.615 1.905 1.515-1.155.022-3.762-1.514-2.59-3.945 3.008-11.391 1.724-14.98-1.436-1.444-1.272-3.573.842-2.121 2.121z" fill="#3a291d"/><path d="M339.7 217.8c2.6 1.305 5.159 2.687 8.078 3.122 1.666.248 8.321-.24 5.86-3.444-1.16-1.51-3.767-.017-2.59 1.514q.519-1.411-.3-1.065a3.506 3.506 0 0 1-1.01.141 7.249 7.249 0 0 1-1.169-.043 14.04 14.04 0 0 1-3.348-.894 42.668 42.668 0 0 1-4.006-1.921c-1.721-.864-3.242 1.723-1.514 2.59z" fill="#3a291d"/><path d="M352.977 219.209a6.805 6.805 0 0 0 4.415 1.478 3.061 3.061 0 0 0 2.984-3 1.5 1.5 0 0 0-3 0c0-.086-.019.031-.321.017a3.594 3.594 0 0 1-.91-.171 5.308 5.308 0 0 1-1.654-.913 1.51 1.51 0 0 0-2.052.538 1.536 1.536 0 0 0 .538 2.053z" fill="#3a291d"/><path d="M358.638 218.6a24.023 24.023 0 0 0 12.181 1.592c2.042-.324 6.086-1.633 4.923-4.376-.752-1.772-3.146-.245-2.4 1.514.031.075.285.149.285.224v-1.514c-1 1.687-5.274 1.411-6.864 1.315a24.326 24.326 0 0 1-7.233-1.648c-1.8-.692-2.68 2.207-.892 2.893z" fill="#3a291d"/><path d="M374.488 217.62a7.506 7.506 0 0 0 3.73 2.827c1.632.406 3.351-.317 3.493-2.133.15-1.925-2.851-1.915-3 0l-.015.19.2-.757c.163-.359.552.028-.015-.226a3.756 3.756 0 0 1-.741-.4 9.451 9.451 0 0 1-1.535-1.624c-1.229-1.491-3.341.642-2.122 2.121zM398.625 214.545c3.051 5.126 8.7 1.024 10.706-2.8 4.8-9.144 6.616-19.576 6.5-29.833-.276-25.219-11.981-48.354-15.75-72.989-.559-3.651-.863-7.29-1.064-10.975-.059-1.084.23-2.633-.512-3.549-.993-1.226-1.695-1-3.006-.53-4.828 1.728-9.072 6.758-11.394 11.1-7.971 14.921-1.914 34.415 3.185 49.236 3.469 10.083 7.335 20.067 9.606 30.513a84.852 84.852 0 0 1 2.032 16.906 72.792 72.792 0 0 1-.454 9.194 22.843 22.843 0 0 1-.642 4.357 3.122 3.122 0 0 1-2.451 3.278 4.991 4.991 0 0 1-5.326-1.97 1.5 1.5 0 0 0-2.121 2.121c3.243 3.211 9.731 4.7 12.226-.357 1.6-3.242 1.516-8.516 1.688-12.077a78.805 78.805 0 0 0-.633-14.079c-2.148-16.349-9.034-31.344-13.744-47.006-4.419-14.695-8.32-35.867 5.991-46.515.73-.543 1.584-.936 2.3-1.487.912-.707 1.484-.173.821-.864s-.287 6.238-.17 7.428a114.99 114.99 0 0 0 1.085 7.95c1.921 11.331 5.42 22.306 8.578 33.332 3.527 12.317 6.764 24.921 6.768 37.819a65.262 65.262 0 0 1-2.533 18.611c-.24.806-6.011 16.852-9.1 11.669a1.5 1.5 0 0 0-2.59 1.514z" fill="#3a291d"/><path d="M416.342 207.711c-.24 2.81 1.305 4.467 4.1 4.665 3.5.25 6.464-2.661 8.948-4.785 8.474-7.244 13.82-17.9 15.413-28.853 1.883-12.958-1.227-26.245-7.248-37.75-6.333-12.1-16.765-22.828-17.528-37.118-.075-1.407-2.058-2.143-2.8-.758-3.048 5.73-5.637 11.456-4.113 18.024.436 1.88 3.329 1.084 2.893-.8-1.341-5.78 1.166-10.742 3.81-15.712l-2.795-.757c.5 9.3 4.736 17.25 9.608 24.983 5.921 9.4 11.7 18.524 14.241 29.5 2.533 10.962 1.878 22.56-2.881 32.83a42.643 42.643 0 0 1-8.575 12.3c-.684.68-10.516 9.4-10.074 4.225.164-1.924-2.837-1.913-3 0z" fill="#3a291d"/></g><g><path d="M478.809 320.123c4.826 4.066 13 9.18 16.521 14.417 0 0 0 3.541-3.8 2.724-1.162-.25-11.341-2.646-14.107-3.836z" fill="#4c2714"/><path d="M479.1 320.83c2.3 1.917 16.8 12.025 14.89 14.874-1.132 1.69-6.462-.5-7.751-.859a69.251 69.251 0 0 1-7.551-2.381c-1.191-.485-1.71 1.449-.531 1.928a87.886 87.886 0 0 0 11.107 3.338c2.169.561 4.759 1.321 6.313-.828 1.785-2.468-.356-4.344-2.045-6.189-3.884-4.244-8.616-7.627-13.018-11.3-.982-.819-2.4.589-1.414 1.414z" fill="#3a291d"/><path d="M262.945 321.123c-4.825 4.066-12 8.18-15.521 13.417 0 0 0 3.541 3.8 2.724 1.161-.25 10.34-1.646 13.106-2.836z" fill="#4c2714"/><path d="M263.238 319.416c-4.386 3.625-9.239 6.722-13.322 10.71-1.881 1.837-4.716 4.074-2.738 6.8 1.67 2.3 4.659 1.24 6.941.69a82.608 82.608 0 0 0 11.477-3.221c1.179-.474.664-2.409-.532-1.928a61.492 61.492 0 0 1-7.655 2.27c-2.014.518-6.152 2.3-7.984 1.108-1.957-1.278-.031-2.32 1.17-3.568a48.529 48.529 0 0 1 4.433-3.972c3.154-2.561 6.493-4.884 9.625-7.472.992-.821-.429-2.229-1.415-1.414z" fill="#3a291d"/><path d="M429.492 383.914c-9.245-.108-16.637-1.483-22.6-4.2-10.252-4.675-16.386-13.73-19.726-20.5a46.633 46.633 0 0 1-4.323-14.8 24.9 24.9 0 0 1 .095-6.42 18.36 18.36 0 0 1 .651-2.125c.932-2.73 1.894-5.546.741-7.392a2.17 2.17 0 0 0-.151-.315l-.472-.816-.929-.227a62.478 62.478 0 0 0-10.691-.946h-1.057a63.245 63.245 0 0 0-10.83.946l-.93.191-.357.634c-.057.058-.108.122-.153.175-1.531 1.825-.5 4.837.488 7.745a18.572 18.572 0 0 1 .651 2.128 24.915 24.915 0 0 1 .1 6.422 46.765 46.765 0 0 1-4.351 14.861c-3.313 6.715-9.446 15.769-19.7 20.445-5.962 2.719-13.355 4.094-22.6 4.2q-.543.007-1.092.007c-9.527 0-17-1.509-22.838-4.613-6.429-3.418-11.4-10.1-15.195-20.433a136.211 136.211 0 0 1-3.838-14.024c-.958-4.219-1.915-7.458-5.528-10.737-2.47-2.242-2.624-5.519-2.568-9.258.063-4.195 1.328-4.586 6.032-6.041l.47-.146a139.661 139.661 0 0 1 26.869-5.281 145.43 145.43 0 0 1 15.3-.831 119.856 119.856 0 0 1 21.587 1.894 90.07 90.07 0 0 1 12.572 3.57c2.164.73 4.4 1.484 6.684 2.155a9.818 9.818 0 0 0 2.819.4 18.257 18.257 0 0 0 3.92-.539 21.348 21.348 0 0 1 2.576-.445c.314-.029.628-.041.942-.041a28.464 28.464 0 0 1 5.344.7c.773.156 1.558.314 2.558.448v.037l.473.068c.31.044.521.084.832.117l.155.022.1-.013.112.013.2-.022c1.363-.145 2.68-.416 3.955-.678a25.316 25.316 0 0 1 5.012-.7c.312 0 .624.012.938.041a21.382 21.382 0 0 1 2.576.445 18.257 18.257 0 0 0 3.919.539 9.813 9.813 0 0 0 2.819-.4c2.281-.671 4.52-1.425 6.684-2.155a90.057 90.057 0 0 1 12.571-3.57 119.875 119.875 0 0 1 21.588-1.894 145.43 145.43 0 0 1 15.3.831 139.666 139.666 0 0 1 26.868 5.281l.471.146c4.7 1.455 5.969 1.846 6.032 6.042.056 3.738-.1 7.015-2.569 9.257-3.613 3.28-4.569 6.519-5.527 10.737a136.024 136.024 0 0 1-3.854 14.069c-3.78 10.287-8.751 16.97-15.18 20.388-5.84 3.1-13.31 4.613-22.837 4.613-.017.001-.746-.001-1.108-.005zm-.4-65.136c-10.743 0-19.076 1.237-26.221 3.891-6.84 2.541-10.619 6.324-12.251 12.265a32.086 32.086 0 0 0 3.516 24.464c7.2 11.428 22.328 19.055 37.7 19.055 14.825 0 26.174-6.895 31.139-18.919a51.067 51.067 0 0 0 2.945-18.565c0-.455-.006-.926-.008-1.407-.013-4.033-.03-9.052-2.335-12.819-4.17-6.811-14.515-7.256-21.361-7.55-.541-.023-1.06-.046-1.553-.07-3.427-.17-7.479-.345-11.574-.345zm-115.342 0c-4.094 0-8.146.175-11.569.345-.493.024-1.013.047-1.554.07-6.845.294-17.19.739-21.36 7.551-2.306 3.766-2.322 8.785-2.335 12.818 0 .481 0 .952-.009 1.407a51 51 0 0 0 2.917 18.491c4.993 12.1 16.343 18.993 31.167 18.993 15.371 0 30.5-7.627 37.655-18.979 4.5-7.9 5.75-16.584 3.561-24.541-1.633-5.94-5.41-9.723-12.25-12.264-7.149-2.654-15.481-3.891-26.226-3.891z" fill="#3a291d"/></g></svg>