<?xml version="1.0" encoding="UTF-8" standalone="no"?>
<!DOCTYPE svg PUBLIC "-//W3C//DTD SVG 1.1//EN" "http://www.w3.org/Graphics/SVG/1.1/DTD/svg11.dtd">
<svg width="100%" height="100%" viewBox="0 0 400 400" version="1.1" xmlns="http://www.w3.org/2000/svg" xmlns:xlink="http://www.w3.org/1999/xlink" xml:space="preserve" xmlns:serif="http://www.serif.com/" style="fill-rule:evenodd;clip-rule:evenodd;stroke-linejoin:round;stroke-miterlimit:2;">
    <circle cx="200" cy="200" r="200" style="fill:white;"/>
    <path d="M281.278,297.942C281.384,297.781 281.482,297.614 281.573,297.443L281.753,297.083C281.775,297.036 281.797,296.988 281.818,296.94C281.964,296.609 282.085,296.267 282.184,295.919L282.25,295.666L282.511,295.328C282.686,295.111 282.868,294.9 283.06,294.698C284.513,294.102 285.647,292.845 286.077,291.304C286.109,291.229 286.139,291.152 286.167,291.074C286.252,290.839 286.319,290.597 286.369,290.352C286.418,290.108 286.449,289.861 286.463,289.613C286.476,289.363 286.472,289.112 286.449,288.863C286.426,288.614 286.385,288.366 286.326,288.123L286.311,288.068C286.307,287.905 286.3,287.741 286.291,287.578C286.278,287.337 286.26,287.096 286.238,286.855C286.216,286.613 286.189,286.372 286.157,286.131C286.125,285.884 286.088,285.638 286.046,285.393L285.982,285.039C286.049,284.683 286.082,284.303 286.077,283.899L286.077,283.896L286.077,283.899C286.073,284.227 286.03,284.551 285.948,284.864L285.947,284.863C286.029,284.55 286.073,284.227 286.077,283.899L286.077,283.859L286.077,283.855C286.077,283.793 286.076,283.735 286.073,283.68C285.97,281.059 287.021,278.866 287.574,276.369C287.582,276.332 287.59,276.295 287.597,276.258C287.788,275.266 287.934,274.266 288.032,273.261C289.623,271.867 290.771,269.858 292,267.587C292.004,267.581 292.007,267.575 292.011,267.568C296.994,258.244 300.638,248.263 302.833,237.921C304.473,230.309 306.126,220.63 303.056,213.112C303.056,213.112 303.056,213.112 303.056,213.111C301.531,209.379 298.42,206.223 294.261,205.721C296.609,191.671 298.373,177.517 298.792,163.329C298.792,163.329 298.792,163.329 298.792,163.329C299.105,152.718 298.782,141.115 295.298,130.773C299.355,130.682 301.43,125.343 298.882,122.258C298.492,121.782 298.088,121.32 297.67,120.872C298.13,120.105 298.394,119.211 298.394,118.261C298.394,117.93 298.362,117.6 298.299,117.276C297.55,112.422 295.371,108.735 292.263,106.341C289.124,103.925 284.962,102.766 280.021,103.33C280.021,103.33 280.021,103.33 280.02,103.33C278.775,103.472 277.399,103.709 275.972,104.04C276.112,103.365 276.235,102.687 276.34,102.01C276.34,102.01 276.34,102.01 276.34,102.01C276.995,97.82 277.507,91.168 276.238,85.602C275.205,81.069 272.985,77.254 269.345,75.181C268.568,74.734 267.687,74.498 266.791,74.498C265.728,74.498 264.736,74.829 263.914,75.394C263.749,75.204 263.58,75.016 263.407,74.829C259.842,70.968 254.77,67.606 250.741,63.667C247.636,60.63 245.145,57.226 245.644,52.433C245.916,49.834 244.209,47.734 241.887,47.098C240.682,46.768 239.423,46.856 238.338,47.353C237.786,45.642 237.418,43.862 237.318,41.984C237.14,38.644 233.758,36.58 230.874,37.241L230.898,37.08C230.936,36.777 230.947,36.47 230.931,36.164C230.922,35.986 230.903,35.809 230.875,35.633C230.84,35.411 230.79,35.191 230.726,34.976C230.661,34.758 230.581,34.544 230.488,34.337C230.415,34.173 230.332,34.013 230.242,33.858C230.151,33.703 230.053,33.553 229.947,33.408C229.736,33.12 229.494,32.853 229.228,32.615C228.975,32.389 228.7,32.188 228.408,32.015C228.262,31.93 228.112,31.851 227.958,31.78C227.805,31.709 227.648,31.646 227.489,31.59C227.238,31.503 226.981,31.436 226.72,31.389C226.469,31.343 226.214,31.317 225.958,31.309C225.65,31.3 225.342,31.319 225.037,31.366C224.739,31.411 224.445,31.483 224.159,31.58C223.91,31.665 223.668,31.769 223.434,31.891C223.205,32.011 222.984,32.148 222.775,32.302C222.663,32.384 222.554,32.471 222.448,32.563L221.878,33.071C221.662,33.272 221.451,33.478 221.245,33.689L221.175,33.763L221.092,33.765L220.915,33.407C220.853,33.296 220.788,33.186 220.719,33.08L220.348,32.573L220.029,32.21C219.942,32.118 219.853,32.028 219.762,31.941C219.66,31.845 219.556,31.752 219.448,31.664C219.258,31.507 219.058,31.363 218.849,31.233C218.732,31.16 218.612,31.092 218.489,31.029C218.357,30.961 218.223,30.898 218.086,30.842C217.953,30.787 217.817,30.738 217.68,30.694C217.541,30.651 217.4,30.613 217.258,30.581C217.088,30.543 216.916,30.514 216.743,30.494C216.636,30.482 216.529,30.473 216.421,30.467L216.053,30.461C215.762,30.466 215.472,30.496 215.185,30.546L214.756,30.637L214.316,30.761L213.637,30.992C213.193,31.154 212.757,31.339 212.332,31.546C212.109,31.654 211.89,31.767 211.673,31.886C211.451,32.008 211.232,32.136 211.016,32.268C210.824,32.386 210.635,32.507 210.449,32.632C210.26,32.759 210.073,32.89 209.889,33.024C209.7,33.161 209.513,33.303 209.33,33.447C209.143,33.594 208.959,33.744 208.778,33.898C208.591,34.057 208.406,34.219 208.225,34.384C208.039,34.553 207.857,34.724 207.678,34.899C207.497,35.076 207.318,35.255 207.143,35.438C206.964,35.624 206.789,35.812 206.617,36.003C206.459,36.178 206.304,36.356 206.151,36.535C205.998,36.715 205.847,36.897 205.699,37.08C205.551,37.264 205.406,37.45 205.263,37.638L204.927,38.091C204.771,38.015 204.613,37.943 204.454,37.874C204.317,37.815 204.178,37.758 204.038,37.705C203.931,37.663 203.823,37.624 203.715,37.586C203.632,37.557 203.548,37.529 203.465,37.502C202.858,37.305 202.235,37.159 201.605,37.064C201.503,37.048 201.402,37.034 201.3,37.021C201.166,37.004 201.031,36.99 200.897,36.977C200.388,36.931 199.877,36.916 199.367,36.933C199.054,36.943 198.743,36.965 198.432,36.999C198.216,37.022 198,37.052 197.784,37.087C197.628,37.112 197.471,37.14 197.315,37.172C197.189,37.197 197.063,37.225 196.938,37.254C196.516,37.353 196.1,37.474 195.692,37.617L195.625,37.476C195.459,37.135 195.289,36.796 195.113,36.459C194.979,36.202 194.842,35.946 194.702,35.692C194.583,35.475 194.461,35.26 194.337,35.045C194.253,34.899 194.167,34.754 194.081,34.609C194.006,34.482 193.93,34.357 193.853,34.232C193.368,33.443 192.852,32.674 192.301,31.93C192.224,31.827 192.147,31.724 192.069,31.622C191.954,31.47 191.837,31.32 191.718,31.171C191.581,30.997 191.441,30.825 191.3,30.655C191.118,30.437 190.933,30.221 190.743,30.008C190.933,29.844 191.108,29.664 191.269,29.471C191.439,29.269 191.592,29.054 191.727,28.827C191.8,28.704 191.868,28.577 191.931,28.448C191.996,28.313 192.054,28.176 192.106,28.036C192.157,27.901 192.201,27.763 192.24,27.623C192.278,27.484 192.31,27.343 192.336,27.2C192.361,27.06 192.38,26.919 192.392,26.777C192.405,26.639 192.411,26.501 192.412,26.364C192.413,26.218 192.407,26.072 192.394,25.926L192.353,25.571C192.332,25.422 192.308,25.273 192.282,25.125C192.248,24.929 192.208,24.735 192.164,24.541C192.119,24.344 192.068,24.147 192.013,23.952C191.957,23.754 191.896,23.558 191.829,23.363C191.761,23.164 191.688,22.968 191.61,22.773C191.539,22.598 191.464,22.425 191.385,22.253C191.305,22.081 191.222,21.912 191.134,21.744C191.045,21.575 190.952,21.409 190.855,21.244C190.758,21.08 190.657,20.918 190.552,20.758C190.418,20.556 190.279,20.359 190.133,20.166C189.988,19.974 189.837,19.787 189.68,19.605C189.525,19.424 189.364,19.248 189.197,19.076C189.033,18.908 188.864,18.745 188.691,18.587C188.523,18.434 188.351,18.286 188.174,18.143C188.002,18.003 187.825,17.868 187.645,17.738C187.3,17.488 186.943,17.257 186.574,17.045C186.261,16.865 185.941,16.699 185.615,16.547C185.312,16.405 185.004,16.276 184.691,16.158C184.136,15.949 183.566,15.778 182.987,15.644C182.488,15.528 181.982,15.44 181.473,15.38L180.84,15.319C180.709,15.309 180.578,15.302 180.447,15.296C180.179,15.284 179.91,15.28 179.641,15.284C179.375,15.288 179.108,15.299 178.842,15.318C178.458,15.346 178.076,15.389 177.696,15.447C177.325,15.504 176.956,15.576 176.59,15.66C176.246,15.74 175.905,15.831 175.567,15.934C175.231,16.035 174.899,16.148 174.571,16.27C174.264,16.385 173.959,16.508 173.658,16.639L173.572,16.678C172.65,15.793 171.402,15.247 170.036,15.247C169.689,15.247 169.344,15.282 169.005,15.352C163.197,16.357 158.172,19.701 154.948,24.392C147.871,23.101 140.349,23.356 133.967,27.049C127.637,30.709 123.642,37.156 121.831,44.093C121.294,46.149 120.91,48.234 120.666,50.341C114.982,49.646 109.326,51.803 106.888,58.125C106.888,58.126 106.888,58.126 106.887,58.127C106.624,58.811 106.414,59.511 106.254,60.223L105.87,60.398C105.473,60.587 105.082,60.788 104.698,61.004C104.333,61.21 103.974,61.428 103.624,61.66C103.371,61.828 103.123,62.002 102.88,62.184C102.626,62.374 102.377,62.572 102.136,62.777C101.884,62.992 101.639,63.215 101.403,63.446C101.16,63.683 100.926,63.929 100.702,64.184C100.56,64.345 100.422,64.51 100.288,64.678C100.153,64.847 100.022,65.019 99.896,65.195C99.769,65.372 99.646,65.552 99.527,65.736C99.408,65.92 99.294,66.107 99.185,66.297C99.034,66.56 98.891,66.829 98.759,67.103C98.627,67.376 98.504,67.654 98.392,67.936C98.308,68.146 98.23,68.357 98.157,68.571C98.085,68.781 98.019,68.994 97.957,69.208C97.873,69.505 97.798,69.804 97.733,70.106C97.686,70.327 97.644,70.549 97.607,70.773C97.579,70.94 97.554,71.108 97.532,71.276C97.516,71.404 97.501,71.533 97.487,71.662C97.477,71.76 97.468,71.858 97.46,71.957C97.408,72.57 97.392,73.187 97.409,73.803L97.434,74.392C97.443,74.536 97.453,74.68 97.465,74.824C97.481,75.011 97.499,75.197 97.52,75.383C97.547,75.626 97.578,75.868 97.614,76.109C97.66,76.422 97.713,76.734 97.772,77.044C97.845,77.424 97.927,77.803 98.017,78.179C98.076,78.421 98.137,78.662 98.202,78.902C98.268,79.146 98.338,79.389 98.41,79.63C98.501,79.933 98.596,80.234 98.696,80.534C98.798,80.839 98.904,81.142 99.014,81.443C99.152,81.819 99.295,82.192 99.445,82.563C99.598,82.942 99.757,83.318 99.921,83.693C100.077,84.045 100.236,84.396 100.401,84.745C99.444,87.699 99.529,91.094 99.937,93.985C99.939,94.004 99.942,94.022 99.945,94.041C100.918,100.302 103.334,106.253 107.001,111.42C107.539,112.191 108.099,112.943 108.682,113.675C105.067,115.138 101.936,117.765 99.547,121.547C96.749,125.973 94.792,132.174 95.328,137.676L95.275,137.763C95.082,138.088 94.896,138.416 94.717,138.749C94.534,139.089 94.358,139.434 94.191,139.783C94.034,140.111 93.883,140.442 93.741,140.777C93.596,141.116 93.46,141.458 93.331,141.804C93.201,142.153 93.079,142.505 92.966,142.86C92.852,143.217 92.747,143.578 92.651,143.941C92.554,144.306 92.466,144.673 92.388,145.043C92.309,145.414 92.24,145.786 92.18,146.161C92.121,146.535 92.071,146.912 92.031,147.289C91.99,147.667 91.96,148.046 91.939,148.425C91.919,148.801 91.908,149.177 91.907,149.553C91.905,149.926 91.914,150.3 91.931,150.673C91.949,151.044 91.975,151.414 92.011,151.783C92.046,152.149 92.09,152.514 92.143,152.878C92.222,153.419 92.32,153.958 92.436,154.492C92.55,155.015 92.68,155.534 92.828,156.048L93.115,156.979C93.434,159.103 95.078,160.817 97.168,161.241L97.227,161.36L97.444,161.737C97.277,164.317 97.44,166.954 97.556,169.24C97.922,176.436 98.822,183.608 99.746,190.751C100.384,195.688 101.197,200.662 101.964,205.653L101.925,205.65C97.111,205.333 93.282,208.695 91.501,212.78C88.27,220.191 89.884,229.847 91.477,237.422C93.6,247.603 97.119,257.45 101.934,266.677C101.936,266.681 101.938,266.685 101.94,266.689C102.762,268.251 103.541,270.022 104.591,271.435C105.569,272.752 106.735,273.825 108.188,274.499C108.277,274.992 108.35,275.499 108.403,276.024C108.403,276.024 108.403,276.024 108.403,276.024C108.744,279.413 108.197,282.83 108.524,286.223C108.524,286.223 108.524,286.224 108.524,286.224C108.899,290.091 110.166,293.807 111.321,297.491C111.321,297.491 111.321,297.491 111.321,297.491C112.219,300.352 113.116,304.157 115.409,306.319C115.52,306.423 115.637,306.521 115.76,306.613C116.684,307.302 117.688,307.876 118.751,308.322C119.579,308.774 120.143,309.6 120.258,310.541C120.27,310.636 120.285,310.731 120.304,310.825C121.003,314.386 121.697,317.082 123.871,320.032C123.871,320.033 123.872,320.033 123.872,320.034C125.91,322.797 126.792,325.419 127.47,328.757C127.47,328.757 127.47,328.757 127.47,328.757C127.843,330.594 128.937,331.688 130.191,332.284C130.4,332.383 130.618,332.467 130.842,332.534C131.213,333.242 131.568,333.959 131.984,334.642C131.986,334.645 131.988,334.649 131.99,334.652C133.138,336.527 134.567,338.214 136.227,339.655C136.349,339.762 136.473,339.862 136.599,339.954C136.689,340.12 136.783,340.284 136.88,340.447C137.09,340.801 137.312,341.147 137.547,341.486C137.782,341.825 138.028,342.155 138.286,342.477C138.543,342.797 138.811,343.108 139.09,343.41C139.367,343.71 139.656,344.001 139.954,344.281C140.194,344.508 140.442,344.728 140.695,344.94C140.704,345.333 140.722,345.725 140.748,346.117C140.76,346.308 140.774,346.498 140.791,346.689C140.651,347.748 140.891,348.913 141.654,350.092L142.175,350.875L142.665,351.583L143.164,352.274L143.672,352.948L144.192,353.603L144.727,354.238L145.278,354.853L145.848,355.447L146.439,356.018L146.743,356.295L146.959,356.484C147.051,356.599 147.148,356.709 147.251,356.814C147.37,356.937 147.496,357.053 147.627,357.163C147.874,357.371 148.141,357.554 148.423,357.711C148.558,357.786 148.696,357.855 148.837,357.918L149.412,358.287L149.78,358.506L150.155,358.718L150.54,358.923L150.933,359.12L151.337,359.311C153.301,360.21 155.423,360.526 157.403,361.304C157.404,361.304 157.405,361.304 157.406,361.305C158.005,361.539 158.475,362.007 158.943,362.481C159.791,363.341 160.563,364.306 161.357,365.149C162.196,366.04 163.125,366.544 164.057,366.737C167.087,368.75 170.508,370.119 174.109,370.749C174.123,370.751 174.137,370.754 174.151,370.756C176.032,371.064 178.011,371.307 179.764,371.871C181.035,372.28 182.18,372.891 182.703,374.225C182.712,374.34 182.725,374.454 182.743,374.568C182.79,374.868 182.864,375.163 182.964,375.449C183.017,375.599 183.076,375.746 183.143,375.891C183.169,375.968 183.197,376.044 183.228,376.119C183.29,376.276 183.361,376.429 183.439,376.578C183.542,376.775 183.659,376.966 183.788,377.147C183.929,377.346 184.085,377.534 184.255,377.709C184.305,377.761 184.357,377.812 184.41,377.862C185.281,378.925 186.597,379.654 188.408,379.598C188.409,379.598 188.41,379.598 188.411,379.598C192.96,379.453 197.467,378.816 201.98,378.249C201.981,378.249 201.981,378.249 201.981,378.248C203.453,378.063 204.584,377.362 205.352,376.414C205.633,376.406 205.914,376.39 206.195,376.367L206.914,376.292C207.204,376.289 207.495,376.26 207.781,376.206C207.93,376.178 208.079,376.143 208.226,376.101C208.375,376.059 208.522,376.009 208.667,375.953C208.81,375.898 208.951,375.835 209.089,375.767C209.225,375.699 209.358,375.625 209.487,375.545C209.684,375.424 209.872,375.289 210.05,375.141C210.777,375.248 211.506,375.339 212.237,375.414C213.223,375.516 214.212,375.589 215.202,375.632L215.773,375.654L215.983,375.747L216.37,375.888C216.42,375.903 216.469,375.918 216.519,375.933C216.895,376.04 217.283,376.104 217.673,376.122C217.747,376.126 217.822,376.127 217.896,376.127C217.997,376.128 218.098,376.125 218.199,376.118C218.336,376.11 218.473,376.096 218.609,376.076C218.818,376.046 219.024,376.001 219.226,375.944C219.385,375.899 219.542,375.846 219.695,375.785C219.849,375.724 219.999,375.654 220.146,375.578C220.343,375.474 220.533,375.357 220.713,375.228C220.885,375.105 221.048,374.971 221.203,374.826C221.325,374.712 221.442,374.591 221.552,374.464C221.65,374.351 221.744,374.233 221.832,374.111C221.978,373.908 222.109,373.694 222.224,373.472L222.442,372.999L222.501,372.86C222.562,372.743 222.616,372.623 222.667,372.501C222.715,372.382 222.759,372.262 222.797,372.14L223.042,371.532C223.251,371.003 223.453,370.471 223.648,369.936C223.749,369.658 223.849,369.379 223.946,369.099L224.278,368.79C224.401,368.664 224.518,368.533 224.628,368.395L224.948,367.973C225.137,367.718 225.323,367.46 225.507,367.199C225.816,366.76 226.117,366.313 226.408,365.861C226.698,365.411 226.978,364.955 227.249,364.494C228.622,364.338 229.968,363.985 231.248,363.443C232.13,363.088 233.186,362.723 234.028,362.172C234.494,361.867 234.915,361.518 235.282,361.122C235.752,360.993 236.217,360.845 236.675,360.678C236.684,360.674 236.694,360.671 236.703,360.667C237.217,360.476 237.722,360.264 238.219,360.033L238.715,359.79L239.179,359.704C239.333,359.668 239.485,359.626 239.634,359.576C239.784,359.526 239.931,359.47 240.075,359.407C240.22,359.343 240.362,359.273 240.5,359.196C240.701,359.085 240.894,358.961 241.079,358.824C241.252,358.694 241.417,358.555 241.573,358.405C241.72,358.264 241.858,358.115 241.987,357.959L242.243,357.628C242.355,357.477 242.465,357.324 242.573,357.17C242.766,356.893 242.953,356.611 243.133,356.324C243.311,356.041 243.482,355.753 243.646,355.461C243.91,354.991 244.156,354.509 244.382,354.02C244.606,353.536 244.812,353.044 244.999,352.545C245.183,352.054 245.349,351.557 245.497,351.055C245.641,350.565 245.769,350.069 245.88,349.57C245.995,349.057 246.092,348.54 246.172,348.02C246.219,347.708 246.261,347.395 246.295,347.081L246.38,347.04C247.141,346.68 247.866,346.239 248.539,345.724C250.528,345.457 252.288,344.626 253.997,343.625C254.159,343.628 254.321,343.621 254.483,343.605C254.697,343.585 254.91,343.551 255.12,343.503C255.295,343.463 255.467,343.414 255.637,343.355C255.808,343.296 255.976,343.227 256.139,343.149C256.299,343.073 256.454,342.988 256.604,342.896C256.751,342.805 256.892,342.707 257.028,342.602C257.239,342.44 257.436,342.26 257.618,342.066C257.775,341.898 257.921,341.719 258.055,341.531C258.16,341.382 258.258,341.228 258.347,341.069L258.474,340.83C258.52,340.741 258.564,340.651 258.607,340.561C258.753,340.252 258.884,339.936 259,339.615C259.079,339.396 259.151,339.175 259.216,338.952C259.29,338.701 259.355,338.447 259.412,338.191C259.487,337.859 259.548,337.523 259.596,337.185C259.626,336.973 259.651,336.76 259.672,336.547C259.693,336.33 259.709,336.112 259.72,335.895C259.734,335.635 259.741,335.374 259.742,335.114C259.743,334.847 259.738,334.58 259.727,334.313L259.711,333.998C261.468,331.443 263.767,329.093 265.772,326.816C267.81,324.501 270.382,322.509 271.814,319.786C273.592,316.41 275.303,312.993 276.989,309.571C276.989,309.571 276.989,309.57 276.989,309.57C277.176,309.191 277.489,308.655 277.837,308.037C278.007,307.931 278.171,307.815 278.328,307.691C278.526,307.533 278.712,307.361 278.885,307.176C279.075,306.973 279.249,306.755 279.404,306.524C279.483,306.406 279.557,306.284 279.627,306.16C279.697,306.033 279.762,305.904 279.821,305.772C279.879,305.641 279.932,305.507 279.98,305.372C280.027,305.237 280.068,305.1 280.104,304.962C280.166,304.719 280.21,304.473 280.236,304.224C280.26,303.993 280.268,303.761 280.261,303.529C280.254,303.31 280.234,303.091 280.199,302.875L280.143,302.568C280.121,302.458 280.098,302.348 280.075,302.239C280.002,301.896 279.924,301.554 279.839,301.213L280.973,298.541C280.999,298.478 281.042,298.36 281.087,298.228L281.278,297.942Z"/>
</svg>
